#N canvas 147 23 1015 784 12;
#N canvas 147 23 1015 810 sequencer 0;
#X obj 193 125 hradio 15 1 0 16 empty empty empty 0 -8 0 10 -262144
-1 -1 11;
#X msg 63 77 stop;
#X obj 63 115 metro;
#X obj 122 125 bng 15 250 50 0 empty empty empty 17 7 0 10 -262144
-1 -1;
#X obj 64 161 +;
#X obj 102 149 + 1;
#X obj 28 138 bng 15 250 50 0 empty empty empty 17 7 0 10 -262144 -1
-1;
#X obj 63 189 %;
#X obj 117 183 nbx 5 14 -1e+37 1e+37 0 0 empty empty empty 0 -8 0 10
-262144 -1 -1 16 256;
#X floatatom 63 222 5 0 0 0 - - -;
#X obj 216 258 sel 0 1 2 3 4 5 6 7 8 8 9 10 11 12 13 14 15;
#X obj 132 45 expr 60 / $f1 * 1000;
#X obj 8 407 outlet;
#X obj 59 407 outlet;
#X obj 110 407 outlet;
#X obj 162 406 outlet;
#X obj 212 406 outlet;
#X obj 263 405 outlet;
#X obj 315 405 outlet;
#X obj 364 404 outlet;
#X obj 413 403 outlet;
#X obj 519 403 outlet;
#X obj 569 402 outlet;
#X obj 620 402 outlet;
#X obj 671 401 outlet;
#X obj 722 401 outlet;
#X obj 772 400 outlet;
#X obj 149 275 bng 15 250 50 0 empty empty empty 17 7 0 10 -262144
-1 -1;
#X obj 822 399 outlet;
#X floatatom 145 123 5 0 0 0 - - -;
#X connect 0 0 10 0;
#X connect 1 0 2 0;
#X connect 2 0 6 0;
#X connect 2 0 4 0;
#X connect 3 0 2 0;
#X connect 4 0 5 0;
#X connect 4 0 7 0;
#X connect 5 0 4 1;
#X connect 7 0 9 0;
#X connect 7 0 0 0;
#X connect 8 0 7 1;
#X connect 10 0 12 0;
#X connect 10 0 27 0;
#X connect 10 1 13 0;
#X connect 10 2 14 0;
#X connect 10 3 15 0;
#X connect 10 4 16 0;
#X connect 10 5 17 0;
#X connect 10 6 18 0;
#X connect 10 7 19 0;
#X connect 10 8 20 0;
#X connect 10 10 21 0;
#X connect 10 11 22 0;
#X connect 10 12 23 0;
#X connect 10 13 24 0;
#X connect 10 14 25 0;
#X connect 10 15 26 0;
#X connect 10 16 28 0;
#X connect 11 0 2 1;
#X connect 29 0 11 0;
#X coords 0 -1 1 1 350 50 1 100 100;
#X restore 333 26 pd sequencer;
#X obj 327 117 bng 15 250 50 0 empty empty empty 17 7 0 10 -262144
-1 -1;
#X obj 351 116 bng 15 250 50 0 empty empty empty 17 7 0 10 -262144
-1 -1;
#X obj 376 116 bng 15 250 50 0 empty empty empty 17 7 0 10 -262144
-1 -1;
#X obj 402 116 bng 15 250 50 0 empty empty empty 17 7 0 10 -262144
-1 -1;
#X obj 426 116 bng 15 250 50 0 empty empty empty 17 7 0 10 -262144
-1 -1;
#X obj 452 117 bng 15 250 50 0 empty empty empty 17 7 0 10 -262144
-1 -1;
#X obj 477 116 bng 15 250 50 0 empty empty empty 17 7 0 10 -262144
-1 -1;
#X obj 504 117 bng 15 250 50 0 empty empty empty 17 7 0 10 -262144
-1 -1;
#X obj 531 118 bng 15 250 50 0 empty empty empty 17 7 0 10 -262144
-1 -1;
#X obj 557 118 bng 15 250 50 0 empty empty empty 17 7 0 10 -262144
-1 -1;
#X obj 583 118 bng 15 250 50 0 empty empty empty 17 7 0 10 -262144
-1 -1;
#X obj 610 118 bng 15 250 50 0 empty empty empty 17 7 0 10 -262144
-1 -1;
#X obj 643 118 bng 15 250 50 0 empty empty empty 17 7 0 10 -262144
-1 -1;
#X obj 679 120 bng 15 250 50 0 empty empty empty 17 7 0 10 -262144
-1 -1;
#X obj 710 119 bng 15 250 50 0 empty empty empty 17 7 0 10 -262144
-1 -1;
#X obj 761 122 bng 15 250 50 0 empty empty empty 17 7 0 10 -262144
-1 -1;
#X text 897 279 1;
#X obj 668 602 *~;
#X obj 633 640 else/out~;
#X text 896 375 0;
#X obj 688 285 else/function 200 100 empty empty 0 1 220 220 220 50
50 50 0 0 0 0 0 100 1 100 0.5 200 0.5 200 0;
#X obj 683 559 else/envgen~ -retrigger 10, f 13;
#X obj 685 252 else/initmess 0 100 1 100 0.5 200 0.5 200 0;
#X text 375 294 [function] =>;
#X obj 128 352 knob 32 32 40 1500 0 0 knob knob empty 0 -8 0 8 3.64606e+06
1 3.64611e+06 0 1;
#X floatatom 11 383 5 0 0 0 - - -;
#X obj 161 393 phasor~ 440;
#X obj 172 429 expr~ $v1 > 0.5;
#X obj -158 555 phasor~ 440;
#X obj 62 499 osc~ 440;
#X obj 3 142 vradio 15 1 0 3 empty empty empty 0 -8 0 10 -257985 -1
-1 2;
#X obj 4 226 sel 0 1 2;
#X obj 171 477 *~;
#X obj -7 447 receive square_receive;
#X obj 128 532 *~;
#X obj -102 508 receive osc_receive;
#X obj 58 602 *~;
#X obj -66 558 receive saw_receive;
#X msg -109 289 1 \; osc_receive 1 \; saw_receive 0 \; square_receive
0 \;;
#X msg 35 288 1 \; osc_receive 0 \; saw_receive 1 \; square_receive
0 \;;
#X msg 183 285 1 \; osc_receive 0 \; saw_receive 0 \; square_receive
1 \;;
#X obj 492 589 hip~;
#X obj 399 574 *~;
#X obj 415 532 receive hip_receive;
#X obj 157 624 *~;
#X obj 197 608 receive lop_receive;
#X obj 245 647 lop~;
#X obj 566 550 mknob 32 100 40 1500 0 0 empty empty Cutoff -2 -6 0
8 -257985 -1 -1 9900 1;
#X obj 180 102 vradio 15 1 0 2 empty empty empty 0 -8 0 10 -262144
-1 -1 0;
#X obj 176 153 sel 0 1;
#X msg 186 198 1 \; lop_receive 1 \; hip_receive 0 \;;
#X msg 293 213 1 \; lop_receive 1 \; hip_receive 0 \;;
#X connect 0 0 1 0;
#X connect 0 0 22 0;
#X connect 0 1 2 0;
#X connect 0 2 3 0;
#X connect 0 3 4 0;
#X connect 0 4 5 0;
#X connect 0 4 22 0;
#X connect 0 5 6 0;
#X connect 0 6 7 0;
#X connect 0 7 8 0;
#X connect 0 8 9 0;
#X connect 0 9 10 0;
#X connect 0 10 11 0;
#X connect 0 11 12 0;
#X connect 0 11 22 0;
#X connect 0 12 13 0;
#X connect 0 12 22 0;
#X connect 0 13 14 0;
#X connect 0 14 15 0;
#X connect 0 15 16 0;
#X connect 18 0 19 1;
#X connect 18 0 19 0;
#X connect 21 0 22 1;
#X connect 22 0 18 1;
#X connect 23 0 21 0;
#X connect 25 0 26 0;
#X connect 25 0 27 0;
#X connect 25 0 30 0;
#X connect 25 0 29 0;
#X connect 27 0 28 0;
#X connect 28 0 33 1;
#X connect 29 0 37 0;
#X connect 30 0 35 1;
#X connect 31 0 32 0;
#X connect 32 0 39 0;
#X connect 32 1 40 0;
#X connect 32 2 41 0;
#X connect 33 0 43 0;
#X connect 33 0 45 0;
#X connect 34 0 33 0;
#X connect 35 0 43 0;
#X connect 35 0 45 0;
#X connect 36 0 35 0;
#X connect 37 0 43 0;
#X connect 37 0 45 0;
#X connect 38 0 37 1;
#X connect 42 0 18 0;
#X connect 43 0 42 0;
#X connect 44 0 43 1;
#X connect 45 0 47 0;
#X connect 46 0 45 1;
#X connect 47 0 18 0;
#X connect 48 0 42 1;
#X connect 48 0 47 1;
#X connect 49 0 50 0;
#X connect 50 0 51 0;
#X connect 50 1 52 0;
