#N canvas 25 23 1317 784 12;
#N canvas 20 50 1317 782 sequencer 0;
#X obj 101 101 cnv 15 400 50 empty empty empty 20 12 0 14 -233017 -66577
0;
#X obj 253 124 hradio 15 1 0 16 empty empty empty 0 -8 0 10 -208320
-1 -1 4;
#X msg 63 77 stop;
#X obj 63 115 metro;
#X obj 112 124 bng 15 250 50 0 empty empty empty 17 7 0 10 -261682
-1 -1;
#X obj 64 161 +;
#X obj 102 149 + 1;
#X obj 28 138 bng 15 250 50 0 empty empty empty 17 7 0 10 -262144 -1
-1;
#X obj 63 189 %;
#X obj 192 125 nbx 5 14 -1e+37 1e+37 0 0 empty empty Steps 0 -8 0 10
-262130 -1 -1 8 256;
#X floatatom 63 222 5 0 0 0 - - -;
#X obj 132 45 expr 60 / $f1 * 1000;
#X obj 229 245 sel 0 1 2 3 4 5 6 7 8 9 10 11 12 13 14 15;
#X obj 222 293 send step_1;
#X obj 222 321 send step_2;
#X obj 222 348 send step_3;
#X obj 221 374 send step_4;
#X obj 314 294 send step_5;
#X obj 314 322 send step_6;
#X obj 314 349 send step_7;
#X obj 313 375 send step_8;
#X obj 404 294 send step_9;
#X obj 404 322 send step_10;
#X obj 404 349 send step_11;
#X obj 403 375 send step_12;
#X obj 499 294 send step_13;
#X obj 499 322 send step_14;
#X obj 499 349 send step_15;
#X obj 498 375 send step_16;
#X obj 134 125 nbx 5 14 -1e+37 1e+37 0 0 empty empty BPM 0 -8 0 10
-262130 -1 -1 150 256;
#X connect 1 0 12 0;
#X connect 2 0 3 0;
#X connect 3 0 7 0;
#X connect 3 0 5 0;
#X connect 4 0 3 0;
#X connect 5 0 6 0;
#X connect 5 0 8 0;
#X connect 6 0 5 1;
#X connect 8 0 10 0;
#X connect 8 0 1 0;
#X connect 9 0 8 1;
#X connect 11 0 3 1;
#X connect 12 0 13 0;
#X connect 12 1 14 0;
#X connect 12 2 15 0;
#X connect 12 3 16 0;
#X connect 12 4 17 0;
#X connect 12 5 18 0;
#X connect 12 6 19 0;
#X connect 12 7 20 0;
#X connect 12 8 21 0;
#X connect 12 9 22 0;
#X connect 12 10 23 0;
#X connect 12 11 24 0;
#X connect 12 12 25 0;
#X connect 12 13 26 0;
#X connect 12 14 27 0;
#X connect 12 15 28 0;
#X connect 29 0 11 0;
#X coords 0 -1 1 1 400 50 1 100 100;
#X restore 402 32 pd sequencer;
#N canvas 26 23 1317 810 oscilator 0;
#X obj 101 101 cnv 15 280 380 empty empty empty 20 12 0 14 -237178
-66577 0;
#X obj 668 602 *~;
#X obj 268 413 else/out~;
#X obj 122 180 else/function 235 120 empty empty 0 1 220 220 220 50
50 50 0 0 0 0 0 5.53193 1 87.234 0.95 108.085 0.383333 108.085 0.00833333
291.064 0;
#X obj 683 559 else/envgen~ -retrigger 10, f 13;
#X obj 122 62 else/initmess 0 100 1 100 0.5 200 0.5 200 0;
#X obj -75 677 osc~ 440;
#X obj 156 348 vradio 15 1 0 3 empty empty empty 0 -8 0 10 -262130
-1 -1 1;
#X obj -22 283 sel 0 1 2;
#X obj 7 665 *~;
#X obj -36 720 *~;
#X obj -106 790 *~;
#X obj 492 589 hip~;
#X obj 399 574 *~;
#X obj -7 812 *~;
#X obj 81 835 lop~;
#X obj 328 345 mknob 32 100 40 1500 0 0 empty empty Cutoff -2 -6 0
8 -262130 -1 -1 1000 1;
#X obj 290 354 vradio 15 1 0 2 empty empty empty 0 -8 0 10 -262130
-1 -1 0;
#X obj -118 92 sel 0 1;
#X obj 684 112 receive step_1;
#X obj 116 131 tgl 13 0 empty empty empty 17 7 0 10 -262130 -1 -1 1
1;
#X obj 684 134 spigot;
#X obj 131 131 tgl 13 0 empty empty empty 17 7 0 10 -262130 -1 -1 0
1;
#X obj 146 131 tgl 13 0 empty empty empty 17 7 0 10 -262130 -1 -1 1
1;
#X obj 161 131 tgl 13 0 empty empty empty 17 7 0 10 -262130 -1 -1 1
1;
#X obj 179 131 tgl 13 0 empty empty empty 17 7 0 10 -262130 -1 -1 1
1;
#X obj 194 131 tgl 13 0 empty empty empty 17 7 0 10 -262130 -1 -1 0
1;
#X obj 209 131 tgl 13 0 empty empty empty 17 7 0 10 -262130 -1 -1 0
1;
#X obj 224 131 tgl 13 0 empty empty empty 17 7 0 10 -262130 -1 -1 0
1;
#X obj 242 131 tgl 13 0 empty empty empty 17 7 0 10 -262130 -1 -1 0
1;
#X obj 257 131 tgl 13 0 empty empty empty 17 7 0 10 -262130 -1 -1 0
1;
#X obj 272 131 tgl 13 0 empty empty empty 17 7 0 10 -262130 -1 -1 0
1;
#X obj 287 131 tgl 13 0 empty empty empty 17 7 0 10 -262130 -1 -1 0
1;
#X obj 304 131 tgl 13 0 empty empty empty 17 7 0 10 -262130 -1 -1 0
1;
#X obj 319 131 tgl 13 0 empty empty empty 17 7 0 10 -262130 -1 -1 0
1;
#X obj 334 131 tgl 13 0 empty empty empty 17 7 0 10 -262130 -1 -1 0
1;
#X obj 349 131 tgl 13 0 empty empty empty 17 7 0 10 -262130 -1 -1 0
1;
#X obj 684 179 spigot;
#X obj 684 223 spigot;
#X obj 683 266 spigot;
#X obj 793 134 spigot;
#X obj 793 179 spigot;
#X obj 793 223 spigot;
#X obj 792 266 spigot;
#X obj 904 134 spigot;
#X obj 904 179 spigot;
#X obj 904 223 spigot;
#X obj 903 266 spigot;
#X obj 1016 132 spigot;
#X obj 1016 177 spigot;
#X obj 1016 221 spigot;
#X obj 1015 264 spigot;
#X obj 684 157 receive step_2;
#X obj 684 201 receive step_3;
#X obj 683 244 receive step_4;
#X obj 793 112 receive step_5;
#X obj 793 157 receive step_6;
#X obj 793 201 receive step_7;
#X obj 792 244 receive step_8;
#X obj 904 112 receive step_9;
#X obj 904 157 receive step_10;
#X obj 904 201 receive step_11;
#X obj 903 244 receive step_12;
#X obj 1016 110 receive step_13;
#X obj 1016 155 receive step_14;
#X obj 1016 199 receive step_15;
#X obj 1015 242 receive step_16;
#N canvas 0 23 1440 810 fm_osc 0;
#X obj 303 290 *~;
#X obj 213 310 +~;
#X obj 213 354 osc~;
#X obj 293 263 osc~;
#X obj 277 232 *~;
#X obj 358 256 *~;
#X obj 210 178 inlet;
#X obj 307 198 inlet;
#X obj 390 223 inlet;
#X obj 216 397 outlet~;
#X connect 0 0 1 1;
#X connect 1 0 2 0;
#X connect 2 0 9 0;
#X connect 3 0 0 0;
#X connect 4 0 3 0;
#X connect 4 0 5 0;
#X connect 5 0 0 1;
#X connect 6 0 1 0;
#X connect 6 0 4 0;
#X connect 7 0 4 1;
#X connect 8 0 5 1;
#X restore -168 672 pd fm_osc;
#N canvas 0 23 1440 810 fm_saw 0;
#X obj 303 290 *~;
#X obj 213 310 +~;
#X obj 277 232 *~;
#X obj 358 256 *~;
#X obj 210 178 inlet;
#X obj 307 198 inlet;
#X obj 390 223 inlet;
#X obj 216 397 outlet~;
#X obj 293 263 phasor~;
#X obj 213 354 phasor~;
#X connect 0 0 1 1;
#X connect 1 0 9 0;
#X connect 2 0 3 0;
#X connect 2 0 8 0;
#X connect 3 0 0 1;
#X connect 4 0 1 0;
#X connect 4 0 2 0;
#X connect 5 0 2 1;
#X connect 6 0 3 1;
#X connect 8 0 0 0;
#X connect 9 0 7 0;
#X restore -321 741 pd fm_saw;
#N canvas 0 23 1416 810 fm_square 0;
#X obj 349 302 *~;
#X obj 213 310 +~;
#X obj 277 232 *~;
#X obj 358 256 *~;
#X obj 210 178 inlet;
#X obj 307 198 inlet;
#X obj 390 223 inlet;
#X obj 216 397 outlet~;
#X obj 293 263 phasor~;
#X obj 308 368 expr~ $v1 > 0.5;
#X obj 298 331 phasor~;
#X obj 311 283 expr~ $v1 > 0.5;
#X connect 0 0 1 1;
#X connect 1 0 10 0;
#X connect 2 0 3 0;
#X connect 2 0 8 0;
#X connect 3 0 0 1;
#X connect 4 0 1 0;
#X connect 4 0 2 0;
#X connect 5 0 2 1;
#X connect 6 0 3 1;
#X connect 8 0 11 0;
#X connect 9 0 7 0;
#X connect 10 0 9 0;
#X connect 11 0 0 0;
#X restore 44 549 pd fm_square;
#X msg -5 54 width 235;
#X msg 49 23 height 120;
#X obj 188 345 nbx 3 17 -1e+37 1e+37 0 0 empty empty Harmonicity 0
-8 0 10 -262130 -1 -1 0.69 256;
#X obj 189 380 nbx 3 17 -1e+37 1e+37 0 0 empty empty Mod_Index 0 -8
0 10 -262130 -1 -1 34.2 256;
#X msg -112 19 -fgcolor 255 \, 255 \, 255;
#X text 109 347 Sine ~;
#X text 116 362 Saw ^;
#X text 116 377 Sqr┌┐;
#X text 265 353 lpf;
#X text 265 368 hpf;
#X floatatom 326 380 5 0 0 0 - - -;
#X text 113 110 Step Selection --------------------;
#X text 113 156 Envelope --------------------------;
#X text 114 313 Oscilator --------;
#X text 259 312 Filters --------;
#X obj 147 424 nbx 5 40 -1e+37 1e+37 0 0 empty empty Frequency 0 -8
0 10 -261682 -1 -1 39 256;
#X msg -326 349 1 \; osc_receive1 1 \; saw_receive1 0 \; square_receive1
0 \;;
#X msg -182 348 1 \; osc_receive1 0 \; saw_receive1 1 \; square_receive1
0 \;;
#X msg -34 345 1 \; osc_receive1 0 \; saw_receive1 0 \; square_receive1
1 \;;
#X msg -108 137 1 \; lop_receive1 1 \; hip_receive1 0 \;;
#X msg -1 152 1 \; lop_receive1 0 \; hip_receive1 1 \;;
#X obj -266 696 receive osc_receive1;
#X obj -230 746 receive saw_receive1;
#X obj -173 633 receive square_receive1;
#X obj 415 532 receive hip_receive1;
#X obj 33 796 receive lop_receive1;
#X connect 1 0 2 1;
#X connect 1 0 2 0;
#X connect 3 0 4 1;
#X connect 4 0 1 1;
#X connect 5 0 3 0;
#X connect 7 0 8 0;
#X connect 8 0 86 0;
#X connect 8 1 87 0;
#X connect 8 2 88 0;
#X connect 9 0 13 0;
#X connect 9 0 14 0;
#X connect 10 0 13 0;
#X connect 10 0 14 0;
#X connect 11 0 13 0;
#X connect 11 0 14 0;
#X connect 12 0 1 0;
#X connect 13 0 12 0;
#X connect 14 0 15 0;
#X connect 15 0 1 0;
#X connect 16 0 12 1;
#X connect 16 0 15 1;
#X connect 16 0 80 0;
#X connect 17 0 18 0;
#X connect 18 0 89 0;
#X connect 18 1 90 0;
#X connect 19 0 21 0;
#X connect 20 0 21 1;
#X connect 21 0 4 0;
#X connect 22 0 37 1;
#X connect 23 0 38 1;
#X connect 24 0 39 1;
#X connect 25 0 40 1;
#X connect 26 0 41 1;
#X connect 27 0 42 1;
#X connect 28 0 43 1;
#X connect 29 0 44 1;
#X connect 30 0 45 1;
#X connect 31 0 46 1;
#X connect 32 0 47 1;
#X connect 33 0 48 1;
#X connect 34 0 49 1;
#X connect 35 0 50 1;
#X connect 36 0 51 1;
#X connect 37 0 4 0;
#X connect 38 0 4 0;
#X connect 39 0 4 0;
#X connect 40 0 4 0;
#X connect 41 0 4 0;
#X connect 42 0 4 0;
#X connect 44 0 4 0;
#X connect 45 0 4 0;
#X connect 46 0 4 0;
#X connect 47 0 4 0;
#X connect 48 0 4 0;
#X connect 49 0 4 0;
#X connect 50 0 4 0;
#X connect 51 0 4 0;
#X connect 52 0 37 0;
#X connect 53 0 38 0;
#X connect 54 0 39 0;
#X connect 55 0 40 0;
#X connect 56 0 41 0;
#X connect 57 0 42 0;
#X connect 58 0 43 0;
#X connect 59 0 44 0;
#X connect 60 0 45 0;
#X connect 61 0 46 0;
#X connect 62 0 47 0;
#X connect 63 0 48 0;
#X connect 64 0 49 0;
#X connect 65 0 50 0;
#X connect 66 0 51 0;
#X connect 67 0 10 1;
#X connect 68 0 11 0;
#X connect 69 0 9 1;
#X connect 70 0 3 0;
#X connect 71 0 3 0;
#X connect 72 0 69 1;
#X connect 72 0 67 1;
#X connect 72 0 68 1;
#X connect 73 0 69 2;
#X connect 73 0 67 2;
#X connect 73 0 68 2;
#X connect 74 0 3 0;
#X connect 85 0 69 0;
#X connect 85 0 67 0;
#X connect 85 0 68 0;
#X connect 91 0 10 0;
#X connect 92 0 11 1;
#X connect 93 0 9 0;
#X connect 94 0 13 1;
#X connect 95 0 14 1;
#X coords 0 -1 1 1 280 380 2 100 100;
#X restore 6 85 pd oscilator;
#N canvas 26 23 1317 810 oscilator 0;
#X obj 101 101 cnv 15 280 380 empty empty empty 20 12 0 14 -237178
-66577 0;
#X obj 668 602 *~;
#X obj 268 413 else/out~;
#X obj 122 180 else/function 235 120 empty empty 0 1 220 220 220 50
50 50 0 0 0 0 0 15.7447 1 68.5107 0.916667 35.7447 0.85 44.2553 0.866667
33.1915 0.35 28.0851 0 374.468 0;
#X obj 683 559 else/envgen~ -retrigger 10, f 13;
#X obj 122 62 else/initmess 0 100 1 100 0.5 200 0.5 200 0;
#X obj -75 677 osc~ 440;
#X obj 156 348 vradio 15 1 0 3 empty empty empty 0 -8 0 10 -262130
-1 -1 1;
#X obj -22 283 sel 0 1 2;
#X obj 7 665 *~;
#X obj -36 720 *~;
#X obj -106 790 *~;
#X obj 492 589 hip~;
#X obj 399 574 *~;
#X obj -7 812 *~;
#X obj 81 835 lop~;
#X obj 328 345 mknob 32 100 40 1500 0 0 empty empty Cutoff -2 -6 0
8 -262130 -1 -1 300 1;
#X obj 290 354 vradio 15 1 0 2 empty empty empty 0 -8 0 10 -262130
-1 -1 0;
#X obj -118 92 sel 0 1;
#X obj 684 112 receive step_1;
#X obj 116 131 tgl 13 0 empty empty empty 17 7 0 10 -262130 -1 -1 0
1;
#X obj 684 134 spigot;
#X obj 131 131 tgl 13 0 empty empty empty 17 7 0 10 -262130 -1 -1 0
1;
#X obj 146 131 tgl 13 0 empty empty empty 17 7 0 10 -262130 -1 -1 1
1;
#X obj 161 131 tgl 13 0 empty empty empty 17 7 0 10 -262130 -1 -1 0
1;
#X obj 179 131 tgl 13 0 empty empty empty 17 7 0 10 -262130 -1 -1 0
1;
#X obj 194 131 tgl 13 0 empty empty empty 17 7 0 10 -262130 -1 -1 0
1;
#X obj 209 131 tgl 13 0 empty empty empty 17 7 0 10 -262130 -1 -1 1
1;
#X obj 224 131 tgl 13 0 empty empty empty 17 7 0 10 -262130 -1 -1 0
1;
#X obj 242 131 tgl 13 0 empty empty empty 17 7 0 10 -262130 -1 -1 0
1;
#X obj 257 131 tgl 13 0 empty empty empty 17 7 0 10 -262130 -1 -1 0
1;
#X obj 272 131 tgl 13 0 empty empty empty 17 7 0 10 -262130 -1 -1 0
1;
#X obj 287 131 tgl 13 0 empty empty empty 17 7 0 10 -262130 -1 -1 0
1;
#X obj 304 131 tgl 13 0 empty empty empty 17 7 0 10 -262130 -1 -1 0
1;
#X obj 319 131 tgl 13 0 empty empty empty 17 7 0 10 -262130 -1 -1 0
1;
#X obj 334 131 tgl 13 0 empty empty empty 17 7 0 10 -262130 -1 -1 0
1;
#X obj 349 131 tgl 13 0 empty empty empty 17 7 0 10 -262130 -1 -1 0
1;
#X obj 684 179 spigot;
#X obj 684 223 spigot;
#X obj 683 266 spigot;
#X obj 793 134 spigot;
#X obj 793 179 spigot;
#X obj 793 223 spigot;
#X obj 792 266 spigot;
#X obj 904 134 spigot;
#X obj 904 179 spigot;
#X obj 904 223 spigot;
#X obj 903 266 spigot;
#X obj 1016 132 spigot;
#X obj 1016 177 spigot;
#X obj 1016 221 spigot;
#X obj 1015 264 spigot;
#X obj 684 157 receive step_2;
#X obj 684 201 receive step_3;
#X obj 683 244 receive step_4;
#X obj 793 112 receive step_5;
#X obj 793 157 receive step_6;
#X obj 793 201 receive step_7;
#X obj 792 244 receive step_8;
#X obj 904 112 receive step_9;
#X obj 904 157 receive step_10;
#X obj 904 201 receive step_11;
#X obj 903 244 receive step_12;
#X obj 1016 110 receive step_13;
#X obj 1016 155 receive step_14;
#X obj 1016 199 receive step_15;
#X obj 1015 242 receive step_16;
#N canvas 0 23 1440 810 fm_osc 0;
#X obj 303 290 *~;
#X obj 213 310 +~;
#X obj 213 354 osc~;
#X obj 293 263 osc~;
#X obj 277 232 *~;
#X obj 358 256 *~;
#X obj 210 178 inlet;
#X obj 307 198 inlet;
#X obj 390 223 inlet;
#X obj 216 397 outlet~;
#X connect 0 0 1 1;
#X connect 1 0 2 0;
#X connect 2 0 9 0;
#X connect 3 0 0 0;
#X connect 4 0 3 0;
#X connect 4 0 5 0;
#X connect 5 0 0 1;
#X connect 6 0 1 0;
#X connect 6 0 4 0;
#X connect 7 0 4 1;
#X connect 8 0 5 1;
#X restore -168 672 pd fm_osc;
#N canvas 0 23 1440 810 fm_saw 0;
#X obj 303 290 *~;
#X obj 213 310 +~;
#X obj 277 232 *~;
#X obj 358 256 *~;
#X obj 210 178 inlet;
#X obj 307 198 inlet;
#X obj 390 223 inlet;
#X obj 216 397 outlet~;
#X obj 293 263 phasor~;
#X obj 213 354 phasor~;
#X connect 0 0 1 1;
#X connect 1 0 9 0;
#X connect 2 0 3 0;
#X connect 2 0 8 0;
#X connect 3 0 0 1;
#X connect 4 0 1 0;
#X connect 4 0 2 0;
#X connect 5 0 2 1;
#X connect 6 0 3 1;
#X connect 8 0 0 0;
#X connect 9 0 7 0;
#X restore -321 741 pd fm_saw;
#N canvas 0 23 1416 810 fm_square 0;
#X obj 349 302 *~;
#X obj 213 310 +~;
#X obj 277 232 *~;
#X obj 358 256 *~;
#X obj 210 178 inlet;
#X obj 307 198 inlet;
#X obj 390 223 inlet;
#X obj 216 397 outlet~;
#X obj 293 263 phasor~;
#X obj 308 368 expr~ $v1 > 0.5;
#X obj 298 331 phasor~;
#X obj 311 283 expr~ $v1 > 0.5;
#X connect 0 0 1 1;
#X connect 1 0 10 0;
#X connect 2 0 3 0;
#X connect 2 0 8 0;
#X connect 3 0 0 1;
#X connect 4 0 1 0;
#X connect 4 0 2 0;
#X connect 5 0 2 1;
#X connect 6 0 3 1;
#X connect 8 0 11 0;
#X connect 9 0 7 0;
#X connect 10 0 9 0;
#X connect 11 0 0 0;
#X restore 44 549 pd fm_square;
#X msg -5 54 width 235;
#X msg 49 23 height 120;
#X obj 188 345 nbx 3 17 -1e+37 1e+37 0 0 empty empty Harmonicity 0
-8 0 10 -262130 -1 -1 -0.17 256;
#X obj 189 380 nbx 3 17 -1e+37 1e+37 0 0 empty empty Mod_Index 0 -8
0 10 -262130 -1 -1 1.22 256;
#X msg -112 19 -fgcolor 255 \, 255 \, 255;
#X text 109 347 Sine ~;
#X text 116 362 Saw ^;
#X text 116 377 Sqr┌┐;
#X text 265 353 lpf;
#X text 265 368 hpf;
#X floatatom 326 380 5 0 0 0 - - -;
#X text 113 110 Step Selection --------------------;
#X text 113 156 Envelope --------------------------;
#X text 114 313 Oscilator --------;
#X text 259 312 Filters --------;
#X obj 147 424 nbx 5 40 -1e+37 1e+37 0 0 empty empty Frequency 0 -8
0 10 -261682 -1 -1 59 256;
#X msg -108 137 1 \; lop_receive2 1 \; hip_receive2 0 \;;
#X msg -1 152 1 \; lop_receive2 0 \; hip_receive2 1 \;;
#X msg -326 349 1 \; osc_receive2 1 \; saw_receive2 0 \; square_receive2
0 \;;
#X msg -182 348 1 \; osc_receive2 0 \; saw_receive2 1 \; square_receive2
0 \;;
#X msg -34 345 1 \; osc_receive2 0 \; saw_receive2 0 \; square_receive2
1 \;;
#X obj -230 746 receive saw_receive2;
#X obj -266 696 receive osc_receive2;
#X obj -171 635 receive square_receive2;
#X obj 33 796 receive lop_receive2;
#X obj 415 532 receive hip_receive2;
#X connect 1 0 2 1;
#X connect 1 0 2 0;
#X connect 3 0 4 1;
#X connect 4 0 1 1;
#X connect 5 0 3 0;
#X connect 7 0 8 0;
#X connect 8 0 88 0;
#X connect 8 1 89 0;
#X connect 8 2 90 0;
#X connect 9 0 13 0;
#X connect 9 0 14 0;
#X connect 10 0 13 0;
#X connect 10 0 14 0;
#X connect 11 0 13 0;
#X connect 11 0 14 0;
#X connect 12 0 1 0;
#X connect 13 0 12 0;
#X connect 14 0 15 0;
#X connect 15 0 1 0;
#X connect 16 0 12 1;
#X connect 16 0 15 1;
#X connect 16 0 80 0;
#X connect 17 0 18 0;
#X connect 18 0 86 0;
#X connect 18 1 87 0;
#X connect 19 0 21 0;
#X connect 20 0 21 1;
#X connect 21 0 4 0;
#X connect 22 0 37 1;
#X connect 23 0 38 1;
#X connect 24 0 39 1;
#X connect 25 0 40 1;
#X connect 26 0 41 1;
#X connect 27 0 42 1;
#X connect 28 0 43 1;
#X connect 29 0 44 1;
#X connect 30 0 45 1;
#X connect 31 0 46 1;
#X connect 32 0 47 1;
#X connect 33 0 48 1;
#X connect 34 0 49 1;
#X connect 35 0 50 1;
#X connect 36 0 51 1;
#X connect 37 0 4 0;
#X connect 38 0 4 0;
#X connect 39 0 4 0;
#X connect 40 0 4 0;
#X connect 41 0 4 0;
#X connect 42 0 4 0;
#X connect 44 0 4 0;
#X connect 45 0 4 0;
#X connect 46 0 4 0;
#X connect 47 0 4 0;
#X connect 48 0 4 0;
#X connect 49 0 4 0;
#X connect 50 0 4 0;
#X connect 51 0 4 0;
#X connect 52 0 37 0;
#X connect 53 0 38 0;
#X connect 54 0 39 0;
#X connect 55 0 40 0;
#X connect 56 0 41 0;
#X connect 57 0 42 0;
#X connect 58 0 43 0;
#X connect 59 0 44 0;
#X connect 60 0 45 0;
#X connect 61 0 46 0;
#X connect 62 0 47 0;
#X connect 63 0 48 0;
#X connect 64 0 49 0;
#X connect 65 0 50 0;
#X connect 66 0 51 0;
#X connect 67 0 10 1;
#X connect 68 0 11 0;
#X connect 69 0 9 1;
#X connect 70 0 3 0;
#X connect 71 0 3 0;
#X connect 72 0 69 1;
#X connect 72 0 67 1;
#X connect 72 0 68 1;
#X connect 73 0 69 2;
#X connect 73 0 67 2;
#X connect 73 0 68 2;
#X connect 74 0 3 0;
#X connect 85 0 69 0;
#X connect 85 0 67 0;
#X connect 85 0 68 0;
#X connect 91 0 11 1;
#X connect 92 0 10 0;
#X connect 93 0 9 0;
#X connect 94 0 14 1;
#X connect 95 0 13 1;
#X coords 0 -1 1 1 280 380 2 100 100;
#X restore 288 85 pd oscilator;
#N canvas 26 23 1317 810 oscilator 0;
#X obj 101 101 cnv 15 280 380 empty empty empty 20 12 0 14 -237178
-66577 0;
#X obj 668 602 *~;
#X obj 268 413 else/out~;
#X obj 122 180 else/function 235 120 empty empty 0 1 220 220 220 50
50 50 0 0 0 0 0 94.8937 0.758333 92.3403 0.441667 141.277 0.441667
72.3404 0.458333 109.787 0.216667 89.3617 0;
#X obj 683 559 else/envgen~ -retrigger 10, f 13;
#X obj 122 62 else/initmess 0 100 1 100 0.5 200 0.5 200 0;
#X obj -75 677 osc~ 440;
#X obj 156 348 vradio 15 1 0 3 empty empty empty 0 -8 0 10 -262130
-1 -1 2;
#X obj -22 283 sel 0 1 2;
#X obj 7 665 *~;
#X obj -36 720 *~;
#X obj -106 790 *~;
#X obj 492 589 hip~;
#X obj 399 574 *~;
#X obj -7 812 *~;
#X obj 81 835 lop~;
#X obj 328 345 mknob 32 100 40 1500 0 0 empty empty Cutoff -2 -6 0
8 -262130 -1 -1 5900 1;
#X obj 290 354 vradio 15 1 0 2 empty empty empty 0 -8 0 10 -262130
-1 -1 0;
#X obj -118 92 sel 0 1;
#X obj 684 112 receive step_1;
#X obj 116 131 tgl 13 0 empty empty empty 17 7 0 10 -262130 -1 -1 1
1;
#X obj 684 134 spigot;
#X obj 131 131 tgl 13 0 empty empty empty 17 7 0 10 -262130 -1 -1 0
1;
#X obj 146 131 tgl 13 0 empty empty empty 17 7 0 10 -262130 -1 -1 0
1;
#X obj 161 131 tgl 13 0 empty empty empty 17 7 0 10 -262130 -1 -1 0
1;
#X obj 179 131 tgl 13 0 empty empty empty 17 7 0 10 -262130 -1 -1 1
1;
#X obj 194 131 tgl 13 0 empty empty empty 17 7 0 10 -262130 -1 -1 0
1;
#X obj 209 131 tgl 13 0 empty empty empty 17 7 0 10 -262130 -1 -1 0
1;
#X obj 224 131 tgl 13 0 empty empty empty 17 7 0 10 -262130 -1 -1 0
1;
#X obj 242 131 tgl 13 0 empty empty empty 17 7 0 10 -262130 -1 -1 0
1;
#X obj 257 131 tgl 13 0 empty empty empty 17 7 0 10 -262130 -1 -1 0
1;
#X obj 272 131 tgl 13 0 empty empty empty 17 7 0 10 -262130 -1 -1 0
1;
#X obj 287 131 tgl 13 0 empty empty empty 17 7 0 10 -262130 -1 -1 0
1;
#X obj 304 131 tgl 13 0 empty empty empty 17 7 0 10 -262130 -1 -1 0
1;
#X obj 319 131 tgl 13 0 empty empty empty 17 7 0 10 -262130 -1 -1 0
1;
#X obj 334 131 tgl 13 0 empty empty empty 17 7 0 10 -262130 -1 -1 0
1;
#X obj 349 131 tgl 13 0 empty empty empty 17 7 0 10 -262130 -1 -1 0
1;
#X obj 684 179 spigot;
#X obj 684 223 spigot;
#X obj 683 266 spigot;
#X obj 793 134 spigot;
#X obj 793 179 spigot;
#X obj 793 223 spigot;
#X obj 792 266 spigot;
#X obj 904 134 spigot;
#X obj 904 179 spigot;
#X obj 904 223 spigot;
#X obj 903 266 spigot;
#X obj 1016 132 spigot;
#X obj 1016 177 spigot;
#X obj 1016 221 spigot;
#X obj 1015 264 spigot;
#X obj 684 157 receive step_2;
#X obj 684 201 receive step_3;
#X obj 683 244 receive step_4;
#X obj 793 112 receive step_5;
#X obj 793 157 receive step_6;
#X obj 793 201 receive step_7;
#X obj 792 244 receive step_8;
#X obj 904 112 receive step_9;
#X obj 904 157 receive step_10;
#X obj 904 201 receive step_11;
#X obj 903 244 receive step_12;
#X obj 1016 110 receive step_13;
#X obj 1016 155 receive step_14;
#X obj 1016 199 receive step_15;
#X obj 1015 242 receive step_16;
#N canvas 0 23 1440 810 fm_osc 0;
#X obj 303 290 *~;
#X obj 213 310 +~;
#X obj 213 354 osc~;
#X obj 293 263 osc~;
#X obj 277 232 *~;
#X obj 358 256 *~;
#X obj 210 178 inlet;
#X obj 307 198 inlet;
#X obj 390 223 inlet;
#X obj 216 397 outlet~;
#X connect 0 0 1 1;
#X connect 1 0 2 0;
#X connect 2 0 9 0;
#X connect 3 0 0 0;
#X connect 4 0 3 0;
#X connect 4 0 5 0;
#X connect 5 0 0 1;
#X connect 6 0 1 0;
#X connect 6 0 4 0;
#X connect 7 0 4 1;
#X connect 8 0 5 1;
#X restore -168 672 pd fm_osc;
#N canvas 0 23 1440 810 fm_saw 0;
#X obj 303 290 *~;
#X obj 213 310 +~;
#X obj 277 232 *~;
#X obj 358 256 *~;
#X obj 210 178 inlet;
#X obj 307 198 inlet;
#X obj 390 223 inlet;
#X obj 216 397 outlet~;
#X obj 293 263 phasor~;
#X obj 213 354 phasor~;
#X connect 0 0 1 1;
#X connect 1 0 9 0;
#X connect 2 0 3 0;
#X connect 2 0 8 0;
#X connect 3 0 0 1;
#X connect 4 0 1 0;
#X connect 4 0 2 0;
#X connect 5 0 2 1;
#X connect 6 0 3 1;
#X connect 8 0 0 0;
#X connect 9 0 7 0;
#X restore -321 741 pd fm_saw;
#N canvas 0 23 1416 810 fm_square 0;
#X obj 349 302 *~;
#X obj 213 310 +~;
#X obj 277 232 *~;
#X obj 358 256 *~;
#X obj 210 178 inlet;
#X obj 307 198 inlet;
#X obj 390 223 inlet;
#X obj 216 397 outlet~;
#X obj 293 263 phasor~;
#X obj 308 368 expr~ $v1 > 0.5;
#X obj 298 331 phasor~;
#X obj 311 283 expr~ $v1 > 0.5;
#X connect 0 0 1 1;
#X connect 1 0 10 0;
#X connect 2 0 3 0;
#X connect 2 0 8 0;
#X connect 3 0 0 1;
#X connect 4 0 1 0;
#X connect 4 0 2 0;
#X connect 5 0 2 1;
#X connect 6 0 3 1;
#X connect 8 0 11 0;
#X connect 9 0 7 0;
#X connect 10 0 9 0;
#X connect 11 0 0 0;
#X restore 44 549 pd fm_square;
#X msg -5 54 width 235;
#X msg 49 23 height 120;
#X obj 188 345 nbx 3 17 -1e+37 1e+37 0 0 empty empty Harmonicity 0
-8 0 10 -262130 -1 -1 31 256;
#X obj 189 380 nbx 3 17 -1e+37 1e+37 0 0 empty empty Mod_Index 0 -8
0 10 -262130 -1 -1 34 256;
#X msg -112 19 -fgcolor 255 \, 255 \, 255;
#X text 109 347 Sine ~;
#X text 116 362 Saw ^;
#X text 116 377 Sqr┌┐;
#X text 265 353 lpf;
#X text 265 368 hpf;
#X floatatom 326 380 5 0 0 0 - - -;
#X text 113 110 Step Selection --------------------;
#X text 113 156 Envelope --------------------------;
#X text 114 313 Oscilator --------;
#X text 259 312 Filters --------;
#X obj 147 424 nbx 5 40 -1e+37 1e+37 0 0 empty empty Frequency 0 -8
0 10 -261682 -1 -1 734 256;
#X msg -108 137 1 \; lop_receive3 1 \; hip_receive3 0 \;;
#X msg -1 152 1 \; lop_receive3 0 \; hip_receive3 1 \;;
#X msg -326 349 1 \; osc_receive3 1 \; saw_receive3 0 \; square_receive3
0 \;;
#X msg -182 348 1 \; osc_receive3 0 \; saw_receive3 1 \; square_receive3
0 \;;
#X msg -34 345 1 \; osc_receive3 0 \; saw_receive3 0 \; square_receive3
1 \;;
#X obj -230 746 receive saw_receive3;
#X obj -266 696 receive osc_receive3;
#X obj -171 635 receive square_receive3;
#X obj 33 796 receive lop_receive3;
#X obj 415 532 receive hip_receive3;
#X connect 1 0 2 1;
#X connect 1 0 2 0;
#X connect 3 0 4 1;
#X connect 4 0 1 1;
#X connect 5 0 3 0;
#X connect 7 0 8 0;
#X connect 8 0 88 0;
#X connect 8 1 89 0;
#X connect 8 2 90 0;
#X connect 9 0 13 0;
#X connect 9 0 14 0;
#X connect 10 0 13 0;
#X connect 10 0 14 0;
#X connect 11 0 13 0;
#X connect 11 0 14 0;
#X connect 12 0 1 0;
#X connect 13 0 12 0;
#X connect 14 0 15 0;
#X connect 15 0 1 0;
#X connect 16 0 12 1;
#X connect 16 0 15 1;
#X connect 16 0 80 0;
#X connect 17 0 18 0;
#X connect 18 0 86 0;
#X connect 18 1 87 0;
#X connect 19 0 21 0;
#X connect 20 0 21 1;
#X connect 21 0 4 0;
#X connect 22 0 37 1;
#X connect 23 0 38 1;
#X connect 24 0 39 1;
#X connect 25 0 40 1;
#X connect 26 0 41 1;
#X connect 27 0 42 1;
#X connect 28 0 43 1;
#X connect 29 0 44 1;
#X connect 30 0 45 1;
#X connect 31 0 46 1;
#X connect 32 0 47 1;
#X connect 33 0 48 1;
#X connect 34 0 49 1;
#X connect 35 0 50 1;
#X connect 36 0 51 1;
#X connect 37 0 4 0;
#X connect 38 0 4 0;
#X connect 39 0 4 0;
#X connect 40 0 4 0;
#X connect 41 0 4 0;
#X connect 42 0 4 0;
#X connect 44 0 4 0;
#X connect 45 0 4 0;
#X connect 46 0 4 0;
#X connect 47 0 4 0;
#X connect 48 0 4 0;
#X connect 49 0 4 0;
#X connect 50 0 4 0;
#X connect 51 0 4 0;
#X connect 52 0 37 0;
#X connect 53 0 38 0;
#X connect 54 0 39 0;
#X connect 55 0 40 0;
#X connect 56 0 41 0;
#X connect 57 0 42 0;
#X connect 58 0 43 0;
#X connect 59 0 44 0;
#X connect 60 0 45 0;
#X connect 61 0 46 0;
#X connect 62 0 47 0;
#X connect 63 0 48 0;
#X connect 64 0 49 0;
#X connect 65 0 50 0;
#X connect 66 0 51 0;
#X connect 67 0 10 1;
#X connect 68 0 11 0;
#X connect 69 0 9 1;
#X connect 70 0 3 0;
#X connect 71 0 3 0;
#X connect 72 0 69 1;
#X connect 72 0 67 1;
#X connect 72 0 68 1;
#X connect 73 0 69 2;
#X connect 73 0 67 2;
#X connect 73 0 68 2;
#X connect 74 0 3 0;
#X connect 85 0 69 0;
#X connect 85 0 67 0;
#X connect 85 0 68 0;
#X connect 91 0 11 1;
#X connect 92 0 10 0;
#X connect 93 0 9 0;
#X connect 94 0 14 1;
#X connect 95 0 13 1;
#X coords 0 -1 1 1 280 380 2 100 100;
#X restore 571 85 pd oscilator;
#N canvas 26 23 1317 810 oscilator 0;
#X obj 101 101 cnv 15 280 380 empty empty empty 20 12 0 14 -237178
-66577 0;
#X obj 668 602 *~;
#X obj 268 413 else/out~;
#X obj 122 180 else/function 235 120 empty empty 0 1 220 220 220 50
50 50 0 0 0 0 0 66.8085 0.75 65.9574 0.641667 61.2766 0.225 44.2554
0.783333 45.1063 0.666667 0 0.341667 140.426 0.375 121.702 0.875 54.4681
0;
#X obj 683 559 else/envgen~ -retrigger 10, f 13;
#X obj 122 62 else/initmess 0 100 1 100 0.5 200 0.5 200 0;
#X obj -75 677 osc~ 440;
#X obj 156 348 vradio 15 1 0 3 empty empty empty 0 -8 0 10 -262130
-1 -1 1;
#X obj -22 283 sel 0 1 2;
#X obj 7 665 *~;
#X obj -36 720 *~;
#X obj -106 790 *~;
#X obj 492 589 hip~;
#X obj 399 574 *~;
#X obj -7 812 *~;
#X obj 81 835 lop~;
#X obj 328 345 mknob 32 100 40 1500 0 0 empty empty Cutoff -2 -6 0
8 -262130 -1 -1 3100 1;
#X obj 290 354 vradio 15 1 0 2 empty empty empty 0 -8 0 10 -262130
-1 -1 0;
#X obj -118 92 sel 0 1;
#X obj 684 112 receive step_1;
#X obj 116 131 tgl 13 0 empty empty empty 17 7 0 10 -262130 -1 -1 0
1;
#X obj 684 134 spigot;
#X obj 131 131 tgl 13 0 empty empty empty 17 7 0 10 -262130 -1 -1 1
1;
#X obj 146 131 tgl 13 0 empty empty empty 17 7 0 10 -262130 -1 -1 0
1;
#X obj 161 131 tgl 13 0 empty empty empty 17 7 0 10 -262130 -1 -1 0
1;
#X obj 179 131 tgl 13 0 empty empty empty 17 7 0 10 -262130 -1 -1 1
1;
#X obj 194 131 tgl 13 0 empty empty empty 17 7 0 10 -262130 -1 -1 0
1;
#X obj 209 131 tgl 13 0 empty empty empty 17 7 0 10 -262130 -1 -1 1
1;
#X obj 224 131 tgl 13 0 empty empty empty 17 7 0 10 -262130 -1 -1 1
1;
#X obj 242 131 tgl 13 0 empty empty empty 17 7 0 10 -262130 -1 -1 0
1;
#X obj 257 131 tgl 13 0 empty empty empty 17 7 0 10 -262130 -1 -1 0
1;
#X obj 272 131 tgl 13 0 empty empty empty 17 7 0 10 -262130 -1 -1 0
1;
#X obj 287 131 tgl 13 0 empty empty empty 17 7 0 10 -262130 -1 -1 0
1;
#X obj 304 131 tgl 13 0 empty empty empty 17 7 0 10 -262130 -1 -1 0
1;
#X obj 319 131 tgl 13 0 empty empty empty 17 7 0 10 -262130 -1 -1 0
1;
#X obj 334 131 tgl 13 0 empty empty empty 17 7 0 10 -262130 -1 -1 0
1;
#X obj 349 131 tgl 13 0 empty empty empty 17 7 0 10 -262130 -1 -1 0
1;
#X obj 684 179 spigot;
#X obj 684 223 spigot;
#X obj 683 266 spigot;
#X obj 793 134 spigot;
#X obj 793 179 spigot;
#X obj 793 223 spigot;
#X obj 792 266 spigot;
#X obj 904 134 spigot;
#X obj 904 179 spigot;
#X obj 904 223 spigot;
#X obj 903 266 spigot;
#X obj 1016 132 spigot;
#X obj 1016 177 spigot;
#X obj 1016 221 spigot;
#X obj 1015 264 spigot;
#X obj 684 157 receive step_2;
#X obj 684 201 receive step_3;
#X obj 683 244 receive step_4;
#X obj 793 112 receive step_5;
#X obj 793 157 receive step_6;
#X obj 793 201 receive step_7;
#X obj 792 244 receive step_8;
#X obj 904 112 receive step_9;
#X obj 904 157 receive step_10;
#X obj 904 201 receive step_11;
#X obj 903 244 receive step_12;
#X obj 1016 110 receive step_13;
#X obj 1016 155 receive step_14;
#X obj 1016 199 receive step_15;
#X obj 1015 242 receive step_16;
#N canvas 0 23 1440 810 fm_osc 0;
#X obj 303 290 *~;
#X obj 213 310 +~;
#X obj 213 354 osc~;
#X obj 293 263 osc~;
#X obj 277 232 *~;
#X obj 358 256 *~;
#X obj 210 178 inlet;
#X obj 307 198 inlet;
#X obj 390 223 inlet;
#X obj 216 397 outlet~;
#X connect 0 0 1 1;
#X connect 1 0 2 0;
#X connect 2 0 9 0;
#X connect 3 0 0 0;
#X connect 4 0 3 0;
#X connect 4 0 5 0;
#X connect 5 0 0 1;
#X connect 6 0 1 0;
#X connect 6 0 4 0;
#X connect 7 0 4 1;
#X connect 8 0 5 1;
#X restore -168 672 pd fm_osc;
#N canvas 0 23 1440 810 fm_saw 0;
#X obj 303 290 *~;
#X obj 213 310 +~;
#X obj 277 232 *~;
#X obj 358 256 *~;
#X obj 210 178 inlet;
#X obj 307 198 inlet;
#X obj 390 223 inlet;
#X obj 216 397 outlet~;
#X obj 293 263 phasor~;
#X obj 213 354 phasor~;
#X connect 0 0 1 1;
#X connect 1 0 9 0;
#X connect 2 0 3 0;
#X connect 2 0 8 0;
#X connect 3 0 0 1;
#X connect 4 0 1 0;
#X connect 4 0 2 0;
#X connect 5 0 2 1;
#X connect 6 0 3 1;
#X connect 8 0 0 0;
#X connect 9 0 7 0;
#X restore -321 741 pd fm_saw;
#N canvas 0 23 1416 810 fm_square 0;
#X obj 349 302 *~;
#X obj 213 310 +~;
#X obj 277 232 *~;
#X obj 358 256 *~;
#X obj 210 178 inlet;
#X obj 307 198 inlet;
#X obj 390 223 inlet;
#X obj 216 397 outlet~;
#X obj 293 263 phasor~;
#X obj 308 368 expr~ $v1 > 0.5;
#X obj 298 331 phasor~;
#X obj 311 283 expr~ $v1 > 0.5;
#X connect 0 0 1 1;
#X connect 1 0 10 0;
#X connect 2 0 3 0;
#X connect 2 0 8 0;
#X connect 3 0 0 1;
#X connect 4 0 1 0;
#X connect 4 0 2 0;
#X connect 5 0 2 1;
#X connect 6 0 3 1;
#X connect 8 0 11 0;
#X connect 9 0 7 0;
#X connect 10 0 9 0;
#X connect 11 0 0 0;
#X restore 44 549 pd fm_square;
#X msg -5 54 width 235;
#X msg 49 23 height 120;
#X obj 188 345 nbx 3 17 -1e+37 1e+37 0 0 empty empty Harmonicity 0
-8 0 10 -262130 -1 -1 116 256;
#X obj 189 380 nbx 3 17 -1e+37 1e+37 0 0 empty empty Mod_Index 0 -8
0 10 -262130 -1 -1 109 256;
#X msg -112 19 -fgcolor 255 \, 255 \, 255;
#X text 109 347 Sine ~;
#X text 116 362 Saw ^;
#X text 116 377 Sqr┌┐;
#X text 265 353 lpf;
#X text 265 368 hpf;
#X floatatom 326 380 5 0 0 0 - - -;
#X text 113 110 Step Selection --------------------;
#X text 113 156 Envelope --------------------------;
#X text 114 313 Oscilator --------;
#X text 259 312 Filters --------;
#X obj 147 424 nbx 5 40 -1e+37 1e+37 0 0 empty empty Frequency 0 -8
0 10 -261682 -1 -1 111 256;
#X msg -108 137 1 \; lop_receive5 1 \; hip_receive5 0 \;;
#X msg -1 152 1 \; lop_receive5 0 \; hip_receive5 1 \;;
#X msg -326 349 1 \; osc_receive5 1 \; saw_receive5 0 \; square_receive5
0 \;;
#X msg -182 348 1 \; osc_receive5 0 \; saw_receive5 1 \; square_receive5
0 \;;
#X msg -34 345 1 \; osc_receive5 0 \; saw_receive5 0 \; square_receive5
1 \;;
#X obj -171 635 receive square_receive5;
#X obj -266 696 receive osc_receive5;
#X obj -230 746 receive saw_receive5;
#X obj 33 796 receive lop_receive5;
#X obj 415 532 receive hip_receive5;
#X connect 1 0 2 1;
#X connect 1 0 2 0;
#X connect 3 0 4 1;
#X connect 4 0 1 1;
#X connect 5 0 3 0;
#X connect 7 0 8 0;
#X connect 8 0 88 0;
#X connect 8 1 89 0;
#X connect 8 2 90 0;
#X connect 9 0 13 0;
#X connect 9 0 14 0;
#X connect 10 0 13 0;
#X connect 10 0 14 0;
#X connect 11 0 13 0;
#X connect 11 0 14 0;
#X connect 12 0 1 0;
#X connect 13 0 12 0;
#X connect 14 0 15 0;
#X connect 15 0 1 0;
#X connect 16 0 12 1;
#X connect 16 0 15 1;
#X connect 16 0 80 0;
#X connect 17 0 18 0;
#X connect 18 0 86 0;
#X connect 18 1 87 0;
#X connect 19 0 21 0;
#X connect 20 0 21 1;
#X connect 21 0 4 0;
#X connect 22 0 37 1;
#X connect 23 0 38 1;
#X connect 24 0 39 1;
#X connect 25 0 40 1;
#X connect 26 0 41 1;
#X connect 27 0 42 1;
#X connect 28 0 43 1;
#X connect 29 0 44 1;
#X connect 30 0 45 1;
#X connect 31 0 46 1;
#X connect 32 0 47 1;
#X connect 33 0 48 1;
#X connect 34 0 49 1;
#X connect 35 0 50 1;
#X connect 36 0 51 1;
#X connect 37 0 4 0;
#X connect 38 0 4 0;
#X connect 39 0 4 0;
#X connect 40 0 4 0;
#X connect 41 0 4 0;
#X connect 42 0 4 0;
#X connect 44 0 4 0;
#X connect 45 0 4 0;
#X connect 46 0 4 0;
#X connect 47 0 4 0;
#X connect 48 0 4 0;
#X connect 49 0 4 0;
#X connect 50 0 4 0;
#X connect 51 0 4 0;
#X connect 52 0 37 0;
#X connect 53 0 38 0;
#X connect 54 0 39 0;
#X connect 55 0 40 0;
#X connect 56 0 41 0;
#X connect 57 0 42 0;
#X connect 58 0 43 0;
#X connect 59 0 44 0;
#X connect 60 0 45 0;
#X connect 61 0 46 0;
#X connect 62 0 47 0;
#X connect 63 0 48 0;
#X connect 64 0 49 0;
#X connect 65 0 50 0;
#X connect 66 0 51 0;
#X connect 67 0 10 1;
#X connect 68 0 11 0;
#X connect 69 0 9 1;
#X connect 70 0 3 0;
#X connect 71 0 3 0;
#X connect 72 0 69 1;
#X connect 72 0 67 1;
#X connect 72 0 68 1;
#X connect 73 0 69 2;
#X connect 73 0 67 2;
#X connect 73 0 68 2;
#X connect 74 0 3 0;
#X connect 85 0 69 0;
#X connect 85 0 67 0;
#X connect 85 0 68 0;
#X connect 91 0 9 0;
#X connect 92 0 10 0;
#X connect 93 0 11 1;
#X connect 94 0 14 1;
#X connect 95 0 13 1;
#X coords 0 -1 1 1 280 380 2 100 100;
#X restore 5 467 pd oscilator;
#N canvas 26 23 1317 810 oscilator 0;
#X obj 101 101 cnv 15 280 380 empty empty empty 20 12 0 14 -237178
-66577 0;
#X obj 668 602 *~;
#X obj 268 413 else/out~;
#X obj 122 180 else/function 235 120 empty empty 0 1 220 220 220 50
50 50 0 0 0 0 0 46.3829 1 125.532 0.683333 119.149 0.125 111.489 0.0916666
197.447 0;
#X obj 683 559 else/envgen~ -retrigger 10, f 13;
#X obj 122 62 else/initmess 0 100 1 100 0.5 200 0.5 200 0;
#X obj -75 677 osc~ 440;
#X obj 156 348 vradio 15 1 0 3 empty empty empty 0 -8 0 10 -262130
-1 -1 0;
#X obj -22 283 sel 0 1 2;
#X obj 7 665 *~;
#X obj -36 720 *~;
#X obj -106 790 *~;
#X obj 492 589 hip~;
#X obj 399 574 *~;
#X obj -7 812 *~;
#X obj 81 835 lop~;
#X obj 328 345 mknob 32 100 40 1500 0 0 empty empty Cutoff -2 -6 0
8 -262130 -1 -1 1400 1;
#X obj 290 354 vradio 15 1 0 2 empty empty empty 0 -8 0 10 -262130
-1 -1 0;
#X obj -118 92 sel 0 1;
#X obj 684 112 receive step_1;
#X obj 116 131 tgl 13 0 empty empty empty 17 7 0 10 -262130 -1 -1 1
1;
#X obj 684 134 spigot;
#X obj 131 131 tgl 13 0 empty empty empty 17 7 0 10 -262130 -1 -1 0
1;
#X obj 146 131 tgl 13 0 empty empty empty 17 7 0 10 -262130 -1 -1 0
1;
#X obj 161 131 tgl 13 0 empty empty empty 17 7 0 10 -262130 -1 -1 0
1;
#X obj 179 131 tgl 13 0 empty empty empty 17 7 0 10 -262130 -1 -1 1
1;
#X obj 194 131 tgl 13 0 empty empty empty 17 7 0 10 -262130 -1 -1 0
1;
#X obj 209 131 tgl 13 0 empty empty empty 17 7 0 10 -262130 -1 -1 0
1;
#X obj 224 131 tgl 13 0 empty empty empty 17 7 0 10 -262130 -1 -1 0
1;
#X obj 242 131 tgl 13 0 empty empty empty 17 7 0 10 -262130 -1 -1 0
1;
#X obj 257 131 tgl 13 0 empty empty empty 17 7 0 10 -262130 -1 -1 0
1;
#X obj 272 131 tgl 13 0 empty empty empty 17 7 0 10 -262130 -1 -1 0
1;
#X obj 287 131 tgl 13 0 empty empty empty 17 7 0 10 -262130 -1 -1 0
1;
#X obj 304 131 tgl 13 0 empty empty empty 17 7 0 10 -262130 -1 -1 0
1;
#X obj 319 131 tgl 13 0 empty empty empty 17 7 0 10 -262130 -1 -1 0
1;
#X obj 334 131 tgl 13 0 empty empty empty 17 7 0 10 -262130 -1 -1 0
1;
#X obj 349 131 tgl 13 0 empty empty empty 17 7 0 10 -262130 -1 -1 0
1;
#X obj 684 179 spigot;
#X obj 684 223 spigot;
#X obj 683 266 spigot;
#X obj 793 134 spigot;
#X obj 793 179 spigot;
#X obj 793 223 spigot;
#X obj 792 266 spigot;
#X obj 904 134 spigot;
#X obj 904 179 spigot;
#X obj 904 223 spigot;
#X obj 903 266 spigot;
#X obj 1016 132 spigot;
#X obj 1016 177 spigot;
#X obj 1016 221 spigot;
#X obj 1015 264 spigot;
#X obj 684 157 receive step_2;
#X obj 684 201 receive step_3;
#X obj 683 244 receive step_4;
#X obj 793 112 receive step_5;
#X obj 793 157 receive step_6;
#X obj 793 201 receive step_7;
#X obj 792 244 receive step_8;
#X obj 904 112 receive step_9;
#X obj 904 157 receive step_10;
#X obj 904 201 receive step_11;
#X obj 903 244 receive step_12;
#X obj 1016 110 receive step_13;
#X obj 1016 155 receive step_14;
#X obj 1016 199 receive step_15;
#X obj 1015 242 receive step_16;
#N canvas 0 23 1440 810 fm_osc 0;
#X obj 303 290 *~;
#X obj 213 310 +~;
#X obj 213 354 osc~;
#X obj 293 263 osc~;
#X obj 277 232 *~;
#X obj 358 256 *~;
#X obj 210 178 inlet;
#X obj 307 198 inlet;
#X obj 390 223 inlet;
#X obj 216 397 outlet~;
#X connect 0 0 1 1;
#X connect 1 0 2 0;
#X connect 2 0 9 0;
#X connect 3 0 0 0;
#X connect 4 0 3 0;
#X connect 4 0 5 0;
#X connect 5 0 0 1;
#X connect 6 0 1 0;
#X connect 6 0 4 0;
#X connect 7 0 4 1;
#X connect 8 0 5 1;
#X restore -168 672 pd fm_osc;
#N canvas 0 23 1440 810 fm_saw 0;
#X obj 303 290 *~;
#X obj 213 310 +~;
#X obj 277 232 *~;
#X obj 358 256 *~;
#X obj 210 178 inlet;
#X obj 307 198 inlet;
#X obj 390 223 inlet;
#X obj 216 397 outlet~;
#X obj 293 263 phasor~;
#X obj 213 354 phasor~;
#X connect 0 0 1 1;
#X connect 1 0 9 0;
#X connect 2 0 3 0;
#X connect 2 0 8 0;
#X connect 3 0 0 1;
#X connect 4 0 1 0;
#X connect 4 0 2 0;
#X connect 5 0 2 1;
#X connect 6 0 3 1;
#X connect 8 0 0 0;
#X connect 9 0 7 0;
#X restore -321 741 pd fm_saw;
#N canvas 0 23 1416 810 fm_square 0;
#X obj 349 302 *~;
#X obj 213 310 +~;
#X obj 277 232 *~;
#X obj 358 256 *~;
#X obj 210 178 inlet;
#X obj 307 198 inlet;
#X obj 390 223 inlet;
#X obj 216 397 outlet~;
#X obj 293 263 phasor~;
#X obj 308 368 expr~ $v1 > 0.5;
#X obj 298 331 phasor~;
#X obj 311 283 expr~ $v1 > 0.5;
#X connect 0 0 1 1;
#X connect 1 0 10 0;
#X connect 2 0 3 0;
#X connect 2 0 8 0;
#X connect 3 0 0 1;
#X connect 4 0 1 0;
#X connect 4 0 2 0;
#X connect 5 0 2 1;
#X connect 6 0 3 1;
#X connect 8 0 11 0;
#X connect 9 0 7 0;
#X connect 10 0 9 0;
#X connect 11 0 0 0;
#X restore 44 549 pd fm_square;
#X msg -5 54 width 235;
#X msg 49 23 height 120;
#X obj 188 345 nbx 3 17 -1e+37 1e+37 0 0 empty empty Harmonicity 0
-8 0 10 -262130 -1 -1 91 256;
#X obj 189 380 nbx 3 17 -1e+37 1e+37 0 0 empty empty Mod_Index 0 -8
0 10 -262130 -1 -1 -11 256;
#X msg -112 19 -fgcolor 255 \, 255 \, 255;
#X text 109 347 Sine ~;
#X text 116 362 Saw ^;
#X text 116 377 Sqr┌┐;
#X text 265 353 lpf;
#X text 265 368 hpf;
#X floatatom 326 380 5 0 0 0 - - -;
#X text 113 110 Step Selection --------------------;
#X text 113 156 Envelope --------------------------;
#X text 114 313 Oscilator --------;
#X text 259 312 Filters --------;
#X obj 147 424 nbx 5 40 -1e+37 1e+37 0 0 empty empty Frequency 0 -8
0 10 -261682 -1 -1 104 256;
#X msg -108 137 1 \; lop_receive6 1 \; hip_receive6 0 \;;
#X msg -1 152 1 \; lop_receive6 0 \; hip_receive6 1 \;;
#X msg -327 350 1 \; osc_receive6 1 \; saw_receive6 0 \; square_receive6
0 \;;
#X msg -182 348 1 \; osc_receive6 0 \; saw_receive6 1 \; square_receive6
0 \;;
#X msg -34 345 1 \; osc_receive6 0 \; saw_receive6 0 \; square_receive6
1 \;;
#X obj -171 635 receive square_receive6;
#X obj -266 696 receive osc_receive6;
#X obj -230 746 receive saw_receive6;
#X obj 415 532 receive hip_receive6;
#X obj 33 796 receive lop_receive6;
#X connect 1 0 2 1;
#X connect 1 0 2 0;
#X connect 3 0 4 1;
#X connect 4 0 1 1;
#X connect 5 0 3 0;
#X connect 7 0 8 0;
#X connect 8 0 88 0;
#X connect 8 1 89 0;
#X connect 8 2 90 0;
#X connect 9 0 13 0;
#X connect 9 0 14 0;
#X connect 10 0 13 0;
#X connect 10 0 14 0;
#X connect 11 0 13 0;
#X connect 11 0 14 0;
#X connect 12 0 1 0;
#X connect 13 0 12 0;
#X connect 14 0 15 0;
#X connect 15 0 1 0;
#X connect 16 0 12 1;
#X connect 16 0 15 1;
#X connect 16 0 80 0;
#X connect 17 0 18 0;
#X connect 18 0 86 0;
#X connect 18 1 87 0;
#X connect 19 0 21 0;
#X connect 20 0 21 1;
#X connect 21 0 4 0;
#X connect 22 0 37 1;
#X connect 23 0 38 1;
#X connect 24 0 39 1;
#X connect 25 0 40 1;
#X connect 26 0 41 1;
#X connect 27 0 42 1;
#X connect 28 0 43 1;
#X connect 29 0 44 1;
#X connect 30 0 45 1;
#X connect 31 0 46 1;
#X connect 32 0 47 1;
#X connect 33 0 48 1;
#X connect 34 0 49 1;
#X connect 35 0 50 1;
#X connect 36 0 51 1;
#X connect 37 0 4 0;
#X connect 38 0 4 0;
#X connect 39 0 4 0;
#X connect 40 0 4 0;
#X connect 41 0 4 0;
#X connect 42 0 4 0;
#X connect 44 0 4 0;
#X connect 45 0 4 0;
#X connect 46 0 4 0;
#X connect 47 0 4 0;
#X connect 48 0 4 0;
#X connect 49 0 4 0;
#X connect 50 0 4 0;
#X connect 51 0 4 0;
#X connect 52 0 37 0;
#X connect 53 0 38 0;
#X connect 54 0 39 0;
#X connect 55 0 40 0;
#X connect 56 0 41 0;
#X connect 57 0 42 0;
#X connect 58 0 43 0;
#X connect 59 0 44 0;
#X connect 60 0 45 0;
#X connect 61 0 46 0;
#X connect 62 0 47 0;
#X connect 63 0 48 0;
#X connect 64 0 49 0;
#X connect 65 0 50 0;
#X connect 66 0 51 0;
#X connect 67 0 10 1;
#X connect 68 0 11 0;
#X connect 69 0 9 1;
#X connect 70 0 3 0;
#X connect 71 0 3 0;
#X connect 72 0 69 1;
#X connect 72 0 67 1;
#X connect 72 0 68 1;
#X connect 73 0 69 2;
#X connect 73 0 67 2;
#X connect 73 0 68 2;
#X connect 74 0 3 0;
#X connect 85 0 69 0;
#X connect 85 0 67 0;
#X connect 85 0 68 0;
#X connect 91 0 9 0;
#X connect 92 0 10 0;
#X connect 93 0 11 1;
#X connect 94 0 13 1;
#X connect 95 0 14 1;
#X coords 0 -1 1 1 280 380 2 100 100;
#X restore 288 467 pd oscilator;
#N canvas 25 23 1317 810 oscilator 0;
#X obj 101 101 cnv 15 280 380 empty empty empty 20 12 0 14 -237178
-66577 0;
#X obj 668 602 *~;
#X obj 268 413 else/out~;
#X obj 122 180 else/function 235 120 empty empty 0 1 220 220 220 50
50 50 0 0 0 0 0 100 1 100 0.5 200 0.5 200 0;
#X obj 683 559 else/envgen~ -retrigger 10, f 13;
#X obj 122 62 else/initmess 0 100 1 100 0.5 200 0.5 200 0;
#X obj -75 677 osc~ 440;
#X obj 156 348 vradio 15 1 0 3 empty empty empty 0 -8 0 10 -262130
-1 -1 0;
#X obj -22 283 sel 0 1 2;
#X obj 7 665 *~;
#X obj -36 720 *~;
#X obj -106 790 *~;
#X obj 492 589 hip~;
#X obj 399 574 *~;
#X obj -7 812 *~;
#X obj 81 835 lop~;
#X obj 328 345 mknob 32 100 40 1500 0 0 empty empty Cutoff -2 -6 0
8 -262130 -1 -1 0 1;
#X obj 290 354 vradio 15 1 0 2 empty empty empty 0 -8 0 10 -262130
-1 -1 1;
#X obj -118 92 sel 0 1;
#X obj 684 112 receive step_1;
#X obj 116 131 tgl 13 0 empty empty empty 17 7 0 10 -262130 -1 -1 0
1;
#X obj 684 134 spigot;
#X obj 131 131 tgl 13 0 empty empty empty 17 7 0 10 -262130 -1 -1 0
1;
#X obj 146 131 tgl 13 0 empty empty empty 17 7 0 10 -262130 -1 -1 1
1;
#X obj 161 131 tgl 13 0 empty empty empty 17 7 0 10 -262130 -1 -1 0
1;
#X obj 179 131 tgl 13 0 empty empty empty 17 7 0 10 -262130 -1 -1 0
1;
#X obj 194 131 tgl 13 0 empty empty empty 17 7 0 10 -262130 -1 -1 0
1;
#X obj 209 131 tgl 13 0 empty empty empty 17 7 0 10 -262130 -1 -1 0
1;
#X obj 224 131 tgl 13 0 empty empty empty 17 7 0 10 -262130 -1 -1 1
1;
#X obj 242 131 tgl 13 0 empty empty empty 17 7 0 10 -262130 -1 -1 0
1;
#X obj 257 131 tgl 13 0 empty empty empty 17 7 0 10 -262130 -1 -1 0
1;
#X obj 272 131 tgl 13 0 empty empty empty 17 7 0 10 -262130 -1 -1 0
1;
#X obj 287 131 tgl 13 0 empty empty empty 17 7 0 10 -262130 -1 -1 1
1;
#X obj 304 131 tgl 13 0 empty empty empty 17 7 0 10 -262130 -1 -1 0
1;
#X obj 319 131 tgl 13 0 empty empty empty 17 7 0 10 -262130 -1 -1 0
1;
#X obj 334 131 tgl 13 0 empty empty empty 17 7 0 10 -262130 -1 -1 0
1;
#X obj 349 131 tgl 13 0 empty empty empty 17 7 0 10 -262130 -1 -1 0
1;
#X obj 684 179 spigot;
#X obj 684 223 spigot;
#X obj 683 266 spigot;
#X obj 793 134 spigot;
#X obj 793 179 spigot;
#X obj 793 223 spigot;
#X obj 792 266 spigot;
#X obj 904 134 spigot;
#X obj 904 179 spigot;
#X obj 904 223 spigot;
#X obj 903 266 spigot;
#X obj 1016 132 spigot;
#X obj 1016 177 spigot;
#X obj 1016 221 spigot;
#X obj 1015 264 spigot;
#X obj 684 157 receive step_2;
#X obj 684 201 receive step_3;
#X obj 683 244 receive step_4;
#X obj 793 112 receive step_5;
#X obj 793 157 receive step_6;
#X obj 793 201 receive step_7;
#X obj 792 244 receive step_8;
#X obj 904 112 receive step_9;
#X obj 904 157 receive step_10;
#X obj 904 201 receive step_11;
#X obj 903 244 receive step_12;
#X obj 1016 110 receive step_13;
#X obj 1016 155 receive step_14;
#X obj 1016 199 receive step_15;
#X obj 1015 242 receive step_16;
#N canvas 0 23 1440 810 fm_osc 0;
#X obj 303 290 *~;
#X obj 213 310 +~;
#X obj 213 354 osc~;
#X obj 293 263 osc~;
#X obj 277 232 *~;
#X obj 358 256 *~;
#X obj 210 178 inlet;
#X obj 307 198 inlet;
#X obj 390 223 inlet;
#X obj 216 397 outlet~;
#X connect 0 0 1 1;
#X connect 1 0 2 0;
#X connect 2 0 9 0;
#X connect 3 0 0 0;
#X connect 4 0 3 0;
#X connect 4 0 5 0;
#X connect 5 0 0 1;
#X connect 6 0 1 0;
#X connect 6 0 4 0;
#X connect 7 0 4 1;
#X connect 8 0 5 1;
#X restore -168 672 pd fm_osc;
#N canvas 0 23 1440 810 fm_saw 0;
#X obj 303 290 *~;
#X obj 213 310 +~;
#X obj 277 232 *~;
#X obj 358 256 *~;
#X obj 210 178 inlet;
#X obj 307 198 inlet;
#X obj 390 223 inlet;
#X obj 216 397 outlet~;
#X obj 293 263 phasor~;
#X obj 213 354 phasor~;
#X connect 0 0 1 1;
#X connect 1 0 9 0;
#X connect 2 0 3 0;
#X connect 2 0 8 0;
#X connect 3 0 0 1;
#X connect 4 0 1 0;
#X connect 4 0 2 0;
#X connect 5 0 2 1;
#X connect 6 0 3 1;
#X connect 8 0 0 0;
#X connect 9 0 7 0;
#X restore -321 741 pd fm_saw;
#N canvas 0 23 1416 810 fm_square 0;
#X obj 349 302 *~;
#X obj 213 310 +~;
#X obj 277 232 *~;
#X obj 358 256 *~;
#X obj 210 178 inlet;
#X obj 307 198 inlet;
#X obj 390 223 inlet;
#X obj 216 397 outlet~;
#X obj 293 263 phasor~;
#X obj 308 368 expr~ $v1 > 0.5;
#X obj 298 331 phasor~;
#X obj 311 283 expr~ $v1 > 0.5;
#X connect 0 0 1 1;
#X connect 1 0 10 0;
#X connect 2 0 3 0;
#X connect 2 0 8 0;
#X connect 3 0 0 1;
#X connect 4 0 1 0;
#X connect 4 0 2 0;
#X connect 5 0 2 1;
#X connect 6 0 3 1;
#X connect 8 0 11 0;
#X connect 9 0 7 0;
#X connect 10 0 9 0;
#X connect 11 0 0 0;
#X restore 44 549 pd fm_square;
#X msg -5 54 width 235;
#X msg 49 23 height 120;
#X obj 188 345 nbx 3 17 -1e+37 1e+37 0 0 empty empty Harmonicity 0
-8 0 10 -262130 -1 -1 0 256;
#X obj 189 380 nbx 3 17 -1e+37 1e+37 0 0 empty empty Mod_Index 0 -8
0 10 -262130 -1 -1 0 256;
#X msg -112 19 -fgcolor 255 \, 255 \, 255;
#X text 109 347 Sine ~;
#X text 116 362 Saw ^;
#X text 116 377 Sqr┌┐;
#X text 265 353 lpf;
#X text 265 368 hpf;
#X floatatom 326 380 5 0 0 0 - - -;
#X text 113 110 Step Selection --------------------;
#X text 113 156 Envelope --------------------------;
#X text 114 313 Oscilator --------;
#X text 259 312 Filters --------;
#X obj 147 424 nbx 5 40 -1e+37 1e+37 0 0 empty empty Frequency 0 -8
0 10 -261682 -1 -1 0 256;
#X msg -108 137 1 \; lop_receive7 1 \; hip_receive7 0 \;;
#X msg -1 152 1 \; lop_receive7 0 \; hip_receive7 1 \;;
#X msg -326 349 1 \; osc_receive7 1 \; saw_receive7 0 \; square_receive7
0 \;;
#X msg -182 348 1 \; osc_receive7 0 \; saw_receive7 1 \; square_receive7
0 \;;
#X msg -34 345 1 \; osc_receive7 0 \; saw_receive7 0 \; square_receive7
1 \;;
#X obj -171 635 receive square_receive7;
#X obj -266 696 receive osc_receive7;
#X obj -230 746 receive saw_receive7;
#X obj 33 796 receive lop_receive7;
#X obj 415 532 receive hip_receive7;
#X connect 1 0 2 1;
#X connect 1 0 2 0;
#X connect 3 0 4 1;
#X connect 4 0 1 1;
#X connect 5 0 3 0;
#X connect 7 0 8 0;
#X connect 8 0 88 0;
#X connect 8 1 89 0;
#X connect 8 2 90 0;
#X connect 9 0 13 0;
#X connect 9 0 14 0;
#X connect 10 0 13 0;
#X connect 10 0 14 0;
#X connect 11 0 13 0;
#X connect 11 0 14 0;
#X connect 12 0 1 0;
#X connect 13 0 12 0;
#X connect 14 0 15 0;
#X connect 15 0 1 0;
#X connect 16 0 12 1;
#X connect 16 0 15 1;
#X connect 16 0 80 0;
#X connect 17 0 18 0;
#X connect 18 0 86 0;
#X connect 18 1 87 0;
#X connect 19 0 21 0;
#X connect 20 0 21 1;
#X connect 21 0 4 0;
#X connect 22 0 37 1;
#X connect 23 0 38 1;
#X connect 24 0 39 1;
#X connect 25 0 40 1;
#X connect 26 0 41 1;
#X connect 27 0 42 1;
#X connect 28 0 43 1;
#X connect 29 0 44 1;
#X connect 30 0 45 1;
#X connect 31 0 46 1;
#X connect 32 0 47 1;
#X connect 33 0 48 1;
#X connect 34 0 49 1;
#X connect 35 0 50 1;
#X connect 36 0 51 1;
#X connect 37 0 4 0;
#X connect 38 0 4 0;
#X connect 39 0 4 0;
#X connect 40 0 4 0;
#X connect 41 0 4 0;
#X connect 42 0 4 0;
#X connect 44 0 4 0;
#X connect 45 0 4 0;
#X connect 46 0 4 0;
#X connect 47 0 4 0;
#X connect 48 0 4 0;
#X connect 49 0 4 0;
#X connect 50 0 4 0;
#X connect 51 0 4 0;
#X connect 52 0 37 0;
#X connect 53 0 38 0;
#X connect 54 0 39 0;
#X connect 55 0 40 0;
#X connect 56 0 41 0;
#X connect 57 0 42 0;
#X connect 58 0 43 0;
#X connect 59 0 44 0;
#X connect 60 0 45 0;
#X connect 61 0 46 0;
#X connect 62 0 47 0;
#X connect 63 0 48 0;
#X connect 64 0 49 0;
#X connect 65 0 50 0;
#X connect 66 0 51 0;
#X connect 67 0 10 1;
#X connect 68 0 11 0;
#X connect 69 0 9 1;
#X connect 70 0 3 0;
#X connect 71 0 3 0;
#X connect 72 0 69 1;
#X connect 72 0 67 1;
#X connect 72 0 68 1;
#X connect 73 0 69 2;
#X connect 73 0 67 2;
#X connect 73 0 68 2;
#X connect 74 0 3 0;
#X connect 85 0 69 0;
#X connect 85 0 67 0;
#X connect 85 0 68 0;
#X connect 91 0 9 0;
#X connect 92 0 10 0;
#X connect 93 0 11 1;
#X connect 94 0 14 1;
#X connect 95 0 13 1;
#X coords 0 -1 1 1 280 380 2 100 100;
#X restore 570 467 pd oscilator;
#N canvas 26 23 1317 810 oscilator 0;
#X obj 101 101 cnv 15 280 380 empty empty empty 20 12 0 14 -237178
-66577 0;
#X obj 668 602 *~;
#X obj 268 413 else/out~;
#X obj 122 180 else/function 235 120 empty empty 0 1 220 220 220 50
50 50 0 0 0 0 0 2.97878 0.966667 156.17 0.375 266.383 0.766667 174.468
0;
#X obj 683 559 else/envgen~ -retrigger 10, f 13;
#X obj 122 62 else/initmess 0 100 1 100 0.5 200 0.5 200 0;
#X obj -75 677 osc~ 440;
#X obj 156 348 vradio 15 1 0 3 empty empty empty 0 -8 0 10 -262130
-1 -1 1;
#X obj -22 283 sel 0 1 2;
#X obj 7 665 *~;
#X obj -36 720 *~;
#X obj -106 790 *~;
#X obj 492 589 hip~;
#X obj 399 574 *~;
#X obj -7 812 *~;
#X obj 81 835 lop~;
#X obj 328 345 mknob 32 100 40 1500 0 0 empty empty Cutoff -2 -6 0
8 -262130 -1 -1 7900 1;
#X obj 290 354 vradio 15 1 0 2 empty empty empty 0 -8 0 10 -262130
-1 -1 1;
#X obj -118 92 sel 0 1;
#X obj 684 112 receive step_1;
#X obj 116 131 tgl 13 0 empty empty empty 17 7 0 10 -262130 -1 -1 1
1;
#X obj 684 134 spigot;
#X obj 131 131 tgl 13 0 empty empty empty 17 7 0 10 -262130 -1 -1 0
1;
#X obj 146 131 tgl 13 0 empty empty empty 17 7 0 10 -262130 -1 -1 0
1;
#X obj 161 131 tgl 13 0 empty empty empty 17 7 0 10 -262130 -1 -1 1
1;
#X obj 179 131 tgl 13 0 empty empty empty 17 7 0 10 -262130 -1 -1 0
1;
#X obj 194 131 tgl 13 0 empty empty empty 17 7 0 10 -262130 -1 -1 0
1;
#X obj 209 131 tgl 13 0 empty empty empty 17 7 0 10 -262130 -1 -1 0
1;
#X obj 224 131 tgl 13 0 empty empty empty 17 7 0 10 -262130 -1 -1 1
1;
#X obj 242 131 tgl 13 0 empty empty empty 17 7 0 10 -262130 -1 -1 0
1;
#X obj 257 131 tgl 13 0 empty empty empty 17 7 0 10 -262130 -1 -1 0
1;
#X obj 272 131 tgl 13 0 empty empty empty 17 7 0 10 -262130 -1 -1 0
1;
#X obj 287 131 tgl 13 0 empty empty empty 17 7 0 10 -262130 -1 -1 0
1;
#X obj 304 131 tgl 13 0 empty empty empty 17 7 0 10 -262130 -1 -1 0
1;
#X obj 319 131 tgl 13 0 empty empty empty 17 7 0 10 -262130 -1 -1 0
1;
#X obj 334 131 tgl 13 0 empty empty empty 17 7 0 10 -262130 -1 -1 0
1;
#X obj 349 131 tgl 13 0 empty empty empty 17 7 0 10 -262130 -1 -1 0
1;
#X obj 684 179 spigot;
#X obj 684 223 spigot;
#X obj 683 266 spigot;
#X obj 793 134 spigot;
#X obj 793 179 spigot;
#X obj 793 223 spigot;
#X obj 792 266 spigot;
#X obj 904 134 spigot;
#X obj 904 179 spigot;
#X obj 904 223 spigot;
#X obj 903 266 spigot;
#X obj 1016 132 spigot;
#X obj 1016 177 spigot;
#X obj 1016 221 spigot;
#X obj 1015 264 spigot;
#X obj 684 157 receive step_2;
#X obj 684 201 receive step_3;
#X obj 683 244 receive step_4;
#X obj 793 112 receive step_5;
#X obj 793 157 receive step_6;
#X obj 793 201 receive step_7;
#X obj 792 244 receive step_8;
#X obj 904 112 receive step_9;
#X obj 904 157 receive step_10;
#X obj 904 201 receive step_11;
#X obj 903 244 receive step_12;
#X obj 1016 110 receive step_13;
#X obj 1016 155 receive step_14;
#X obj 1016 199 receive step_15;
#X obj 1015 242 receive step_16;
#N canvas 0 23 1440 810 fm_osc 0;
#X obj 303 290 *~;
#X obj 213 310 +~;
#X obj 213 354 osc~;
#X obj 293 263 osc~;
#X obj 277 232 *~;
#X obj 358 256 *~;
#X obj 210 178 inlet;
#X obj 307 198 inlet;
#X obj 390 223 inlet;
#X obj 216 397 outlet~;
#X connect 0 0 1 1;
#X connect 1 0 2 0;
#X connect 2 0 9 0;
#X connect 3 0 0 0;
#X connect 4 0 3 0;
#X connect 4 0 5 0;
#X connect 5 0 0 1;
#X connect 6 0 1 0;
#X connect 6 0 4 0;
#X connect 7 0 4 1;
#X connect 8 0 5 1;
#X restore -168 672 pd fm_osc;
#N canvas 0 23 1440 810 fm_saw 0;
#X obj 303 290 *~;
#X obj 213 310 +~;
#X obj 277 232 *~;
#X obj 358 256 *~;
#X obj 210 178 inlet;
#X obj 307 198 inlet;
#X obj 390 223 inlet;
#X obj 216 397 outlet~;
#X obj 293 263 phasor~;
#X obj 213 354 phasor~;
#X connect 0 0 1 1;
#X connect 1 0 9 0;
#X connect 2 0 3 0;
#X connect 2 0 8 0;
#X connect 3 0 0 1;
#X connect 4 0 1 0;
#X connect 4 0 2 0;
#X connect 5 0 2 1;
#X connect 6 0 3 1;
#X connect 8 0 0 0;
#X connect 9 0 7 0;
#X restore -321 741 pd fm_saw;
#N canvas 0 23 1416 810 fm_square 0;
#X obj 349 302 *~;
#X obj 213 310 +~;
#X obj 277 232 *~;
#X obj 358 256 *~;
#X obj 210 178 inlet;
#X obj 307 198 inlet;
#X obj 390 223 inlet;
#X obj 216 397 outlet~;
#X obj 293 263 phasor~;
#X obj 308 368 expr~ $v1 > 0.5;
#X obj 298 331 phasor~;
#X obj 311 283 expr~ $v1 > 0.5;
#X connect 0 0 1 1;
#X connect 1 0 10 0;
#X connect 2 0 3 0;
#X connect 2 0 8 0;
#X connect 3 0 0 1;
#X connect 4 0 1 0;
#X connect 4 0 2 0;
#X connect 5 0 2 1;
#X connect 6 0 3 1;
#X connect 8 0 11 0;
#X connect 9 0 7 0;
#X connect 10 0 9 0;
#X connect 11 0 0 0;
#X restore 44 549 pd fm_square;
#X msg -5 54 width 235;
#X msg 49 23 height 120;
#X obj 188 345 nbx 3 17 -1e+37 1e+37 0 0 empty empty Harmonicity 0
-8 0 10 -262130 -1 -1 -38 256;
#X obj 189 380 nbx 3 17 -1e+37 1e+37 0 0 empty empty Mod_Index 0 -8
0 10 -262130 -1 -1 57 256;
#X msg -112 19 -fgcolor 255 \, 255 \, 255;
#X text 109 347 Sine ~;
#X text 116 362 Saw ^;
#X text 116 377 Sqr┌┐;
#X text 265 353 lpf;
#X text 265 368 hpf;
#X floatatom 326 380 5 0 0 0 - - -;
#X text 113 110 Step Selection --------------------;
#X text 113 156 Envelope --------------------------;
#X text 114 313 Oscilator --------;
#X text 259 312 Filters --------;
#X obj 147 424 nbx 5 40 -1e+37 1e+37 0 0 empty empty Frequency 0 -8
0 10 -261682 -1 -1 272 256;
#X msg -108 137 1 \; lop_receive4 1 \; hip_receive4 0 \;;
#X msg -1 152 1 \; lop_receive4 0 \; hip_receive4 1 \;;
#X msg -326 349 1 \; osc_receive4 1 \; saw_receive4 0 \; square_receive4
0 \;;
#X msg -182 348 1 \; osc_receive4 0 \; saw_receive4 1 \; square_receive4
0 \;;
#X msg -34 345 1 \; osc_receive4 0 \; saw_receive4 0 \; square_receive4
1 \;;
#X obj -266 696 receive osc_receive4;
#X obj -171 635 receive square_receive4;
#X obj -230 746 receive saw_receive4;
#X obj 33 796 receive lop_receive4;
#X obj 415 532 receive hip_receive4;
#X connect 1 0 2 1;
#X connect 1 0 2 0;
#X connect 3 0 4 1;
#X connect 4 0 1 1;
#X connect 5 0 3 0;
#X connect 7 0 8 0;
#X connect 8 0 88 0;
#X connect 8 1 89 0;
#X connect 8 2 90 0;
#X connect 9 0 13 0;
#X connect 9 0 14 0;
#X connect 10 0 13 0;
#X connect 10 0 14 0;
#X connect 11 0 13 0;
#X connect 11 0 14 0;
#X connect 12 0 1 0;
#X connect 13 0 12 0;
#X connect 14 0 15 0;
#X connect 15 0 1 0;
#X connect 16 0 12 1;
#X connect 16 0 15 1;
#X connect 16 0 80 0;
#X connect 17 0 18 0;
#X connect 18 0 86 0;
#X connect 18 1 87 0;
#X connect 19 0 21 0;
#X connect 20 0 21 1;
#X connect 21 0 4 0;
#X connect 22 0 37 1;
#X connect 23 0 38 1;
#X connect 24 0 39 1;
#X connect 25 0 40 1;
#X connect 26 0 41 1;
#X connect 27 0 42 1;
#X connect 28 0 43 1;
#X connect 29 0 44 1;
#X connect 30 0 45 1;
#X connect 31 0 46 1;
#X connect 32 0 47 1;
#X connect 33 0 48 1;
#X connect 34 0 49 1;
#X connect 35 0 50 1;
#X connect 36 0 51 1;
#X connect 37 0 4 0;
#X connect 38 0 4 0;
#X connect 39 0 4 0;
#X connect 40 0 4 0;
#X connect 41 0 4 0;
#X connect 42 0 4 0;
#X connect 44 0 4 0;
#X connect 45 0 4 0;
#X connect 46 0 4 0;
#X connect 47 0 4 0;
#X connect 48 0 4 0;
#X connect 49 0 4 0;
#X connect 50 0 4 0;
#X connect 51 0 4 0;
#X connect 52 0 37 0;
#X connect 53 0 38 0;
#X connect 54 0 39 0;
#X connect 55 0 40 0;
#X connect 56 0 41 0;
#X connect 57 0 42 0;
#X connect 58 0 43 0;
#X connect 59 0 44 0;
#X connect 60 0 45 0;
#X connect 61 0 46 0;
#X connect 62 0 47 0;
#X connect 63 0 48 0;
#X connect 64 0 49 0;
#X connect 65 0 50 0;
#X connect 66 0 51 0;
#X connect 67 0 10 1;
#X connect 68 0 11 0;
#X connect 69 0 9 1;
#X connect 70 0 3 0;
#X connect 71 0 3 0;
#X connect 72 0 69 1;
#X connect 72 0 67 1;
#X connect 72 0 68 1;
#X connect 73 0 69 2;
#X connect 73 0 67 2;
#X connect 73 0 68 2;
#X connect 74 0 3 0;
#X connect 85 0 69 0;
#X connect 85 0 67 0;
#X connect 85 0 68 0;
#X connect 91 0 10 0;
#X connect 92 0 9 0;
#X connect 93 0 11 1;
#X connect 94 0 14 1;
#X connect 95 0 13 1;
#X coords 0 -1 1 1 280 380 2 100 100;
#X restore 853 85 pd oscilator;
#N canvas 25 23 1317 810 oscilator 0;
#X obj 101 101 cnv 15 280 380 empty empty empty 20 12 0 14 -237178
-66577 0;
#X obj 668 602 *~;
#X obj 268 413 else/out~;
#X obj 122 180 else/function 235 120 empty empty 0 1 220 220 220 50
50 50 0 0 0 0 0 100 1 100 0.5 200 0.5 200 0;
#X obj 683 559 else/envgen~ -retrigger 10, f 13;
#X obj 122 62 else/initmess 0 100 1 100 0.5 200 0.5 200 0;
#X obj -75 677 osc~ 440;
#X obj 156 348 vradio 15 1 0 3 empty empty empty 0 -8 0 10 -262130
-1 -1 0;
#X obj -22 283 sel 0 1 2;
#X obj 7 665 *~;
#X obj -36 720 *~;
#X obj -106 790 *~;
#X obj 492 589 hip~;
#X obj 399 574 *~;
#X obj -7 812 *~;
#X obj 81 835 lop~;
#X obj 328 345 mknob 32 100 40 1500 0 0 empty empty Cutoff -2 -6 0
8 -262130 -1 -1 0 1;
#X obj 290 354 vradio 15 1 0 2 empty empty empty 0 -8 0 10 -262130
-1 -1 1;
#X obj -118 92 sel 0 1;
#X obj 684 112 receive step_1;
#X obj 116 131 tgl 13 0 empty empty empty 17 7 0 10 -262130 -1 -1 0
1;
#X obj 684 134 spigot;
#X obj 131 131 tgl 13 0 empty empty empty 17 7 0 10 -262130 -1 -1 0
1;
#X obj 146 131 tgl 13 0 empty empty empty 17 7 0 10 -262130 -1 -1 0
1;
#X obj 161 131 tgl 13 0 empty empty empty 17 7 0 10 -262130 -1 -1 0
1;
#X obj 179 131 tgl 13 0 empty empty empty 17 7 0 10 -262130 -1 -1 0
1;
#X obj 194 131 tgl 13 0 empty empty empty 17 7 0 10 -262130 -1 -1 0
1;
#X obj 209 131 tgl 13 0 empty empty empty 17 7 0 10 -262130 -1 -1 0
1;
#X obj 224 131 tgl 13 0 empty empty empty 17 7 0 10 -262130 -1 -1 0
1;
#X obj 242 131 tgl 13 0 empty empty empty 17 7 0 10 -262130 -1 -1 0
1;
#X obj 257 131 tgl 13 0 empty empty empty 17 7 0 10 -262130 -1 -1 0
1;
#X obj 272 131 tgl 13 0 empty empty empty 17 7 0 10 -262130 -1 -1 0
1;
#X obj 287 131 tgl 13 0 empty empty empty 17 7 0 10 -262130 -1 -1 0
1;
#X obj 304 131 tgl 13 0 empty empty empty 17 7 0 10 -262130 -1 -1 0
1;
#X obj 319 131 tgl 13 0 empty empty empty 17 7 0 10 -262130 -1 -1 0
1;
#X obj 334 131 tgl 13 0 empty empty empty 17 7 0 10 -262130 -1 -1 0
1;
#X obj 349 131 tgl 13 0 empty empty empty 17 7 0 10 -262130 -1 -1 0
1;
#X obj 684 179 spigot;
#X obj 684 223 spigot;
#X obj 683 266 spigot;
#X obj 793 134 spigot;
#X obj 793 179 spigot;
#X obj 793 223 spigot;
#X obj 792 266 spigot;
#X obj 904 134 spigot;
#X obj 904 179 spigot;
#X obj 904 223 spigot;
#X obj 903 266 spigot;
#X obj 1016 132 spigot;
#X obj 1016 177 spigot;
#X obj 1016 221 spigot;
#X obj 1015 264 spigot;
#X obj 684 157 receive step_2;
#X obj 684 201 receive step_3;
#X obj 683 244 receive step_4;
#X obj 793 112 receive step_5;
#X obj 793 157 receive step_6;
#X obj 793 201 receive step_7;
#X obj 792 244 receive step_8;
#X obj 904 112 receive step_9;
#X obj 904 157 receive step_10;
#X obj 904 201 receive step_11;
#X obj 903 244 receive step_12;
#X obj 1016 110 receive step_13;
#X obj 1016 155 receive step_14;
#X obj 1016 199 receive step_15;
#X obj 1015 242 receive step_16;
#N canvas 0 23 1440 810 fm_osc 0;
#X obj 303 290 *~;
#X obj 213 310 +~;
#X obj 213 354 osc~;
#X obj 293 263 osc~;
#X obj 277 232 *~;
#X obj 358 256 *~;
#X obj 210 178 inlet;
#X obj 307 198 inlet;
#X obj 390 223 inlet;
#X obj 216 397 outlet~;
#X connect 0 0 1 1;
#X connect 1 0 2 0;
#X connect 2 0 9 0;
#X connect 3 0 0 0;
#X connect 4 0 3 0;
#X connect 4 0 5 0;
#X connect 5 0 0 1;
#X connect 6 0 1 0;
#X connect 6 0 4 0;
#X connect 7 0 4 1;
#X connect 8 0 5 1;
#X restore -168 672 pd fm_osc;
#N canvas 0 23 1440 810 fm_saw 0;
#X obj 303 290 *~;
#X obj 213 310 +~;
#X obj 277 232 *~;
#X obj 358 256 *~;
#X obj 210 178 inlet;
#X obj 307 198 inlet;
#X obj 390 223 inlet;
#X obj 216 397 outlet~;
#X obj 293 263 phasor~;
#X obj 213 354 phasor~;
#X connect 0 0 1 1;
#X connect 1 0 9 0;
#X connect 2 0 3 0;
#X connect 2 0 8 0;
#X connect 3 0 0 1;
#X connect 4 0 1 0;
#X connect 4 0 2 0;
#X connect 5 0 2 1;
#X connect 6 0 3 1;
#X connect 8 0 0 0;
#X connect 9 0 7 0;
#X restore -321 741 pd fm_saw;
#N canvas 0 23 1416 810 fm_square 0;
#X obj 349 302 *~;
#X obj 213 310 +~;
#X obj 277 232 *~;
#X obj 358 256 *~;
#X obj 210 178 inlet;
#X obj 307 198 inlet;
#X obj 390 223 inlet;
#X obj 216 397 outlet~;
#X obj 293 263 phasor~;
#X obj 308 368 expr~ $v1 > 0.5;
#X obj 298 331 phasor~;
#X obj 311 283 expr~ $v1 > 0.5;
#X connect 0 0 1 1;
#X connect 1 0 10 0;
#X connect 2 0 3 0;
#X connect 2 0 8 0;
#X connect 3 0 0 1;
#X connect 4 0 1 0;
#X connect 4 0 2 0;
#X connect 5 0 2 1;
#X connect 6 0 3 1;
#X connect 8 0 11 0;
#X connect 9 0 7 0;
#X connect 10 0 9 0;
#X connect 11 0 0 0;
#X restore 44 549 pd fm_square;
#X msg -5 54 width 235;
#X msg 49 23 height 120;
#X obj 188 345 nbx 3 17 -1e+37 1e+37 0 0 empty empty Harmonicity 0
-8 0 10 -262130 -1 -1 0 256;
#X obj 189 380 nbx 3 17 -1e+37 1e+37 0 0 empty empty Mod_Index 0 -8
0 10 -262130 -1 -1 0 256;
#X msg -112 19 -fgcolor 255 \, 255 \, 255;
#X text 109 347 Sine ~;
#X text 116 362 Saw ^;
#X text 116 377 Sqr┌┐;
#X text 265 353 lpf;
#X text 265 368 hpf;
#X floatatom 326 380 5 0 0 0 - - -;
#X text 113 110 Step Selection --------------------;
#X text 113 156 Envelope --------------------------;
#X text 114 313 Oscilator --------;
#X text 259 312 Filters --------;
#X obj 147 424 nbx 5 40 -1e+37 1e+37 0 0 empty empty Frequency 0 -8
0 10 -261682 -1 -1 0 256;
#X msg -108 137 1 \; lop_receive8 1 \; hip_receive8 0 \;;
#X msg -1 152 1 \; lop_receive8 0 \; hip_receive8 1 \;;
#X msg -326 349 1 \; osc_receive8 1 \; saw_receive8 0 \; square_receive8
0 \;;
#X msg -182 347 1 \; osc_receive8 0 \; saw_receive8 1 \; square_receive8
0 \;;
#X msg -34 345 1 \; osc_receive8 0 \; saw_receive8 0 \; square_receive8
1 \;;
#X obj 33 796 receive lop_receive8;
#X obj -171 635 receive square_receive8;
#X obj -266 696 receive osc_receive8;
#X obj -230 746 receive saw_receive8;
#X obj 415 532 receive hip_receive8;
#X connect 1 0 2 1;
#X connect 1 0 2 0;
#X connect 3 0 4 1;
#X connect 4 0 1 1;
#X connect 5 0 3 0;
#X connect 7 0 8 0;
#X connect 8 0 88 0;
#X connect 8 1 89 0;
#X connect 8 2 90 0;
#X connect 9 0 13 0;
#X connect 9 0 14 0;
#X connect 10 0 13 0;
#X connect 10 0 14 0;
#X connect 11 0 13 0;
#X connect 11 0 14 0;
#X connect 12 0 1 0;
#X connect 13 0 12 0;
#X connect 14 0 15 0;
#X connect 15 0 1 0;
#X connect 16 0 12 1;
#X connect 16 0 15 1;
#X connect 16 0 80 0;
#X connect 17 0 18 0;
#X connect 18 0 86 0;
#X connect 18 1 87 0;
#X connect 19 0 21 0;
#X connect 20 0 21 1;
#X connect 21 0 4 0;
#X connect 22 0 37 1;
#X connect 23 0 38 1;
#X connect 24 0 39 1;
#X connect 25 0 40 1;
#X connect 26 0 41 1;
#X connect 27 0 42 1;
#X connect 28 0 43 1;
#X connect 29 0 44 1;
#X connect 30 0 45 1;
#X connect 31 0 46 1;
#X connect 32 0 47 1;
#X connect 33 0 48 1;
#X connect 34 0 49 1;
#X connect 35 0 50 1;
#X connect 36 0 51 1;
#X connect 37 0 4 0;
#X connect 38 0 4 0;
#X connect 39 0 4 0;
#X connect 40 0 4 0;
#X connect 41 0 4 0;
#X connect 42 0 4 0;
#X connect 44 0 4 0;
#X connect 45 0 4 0;
#X connect 46 0 4 0;
#X connect 47 0 4 0;
#X connect 48 0 4 0;
#X connect 49 0 4 0;
#X connect 50 0 4 0;
#X connect 51 0 4 0;
#X connect 52 0 37 0;
#X connect 53 0 38 0;
#X connect 54 0 39 0;
#X connect 55 0 40 0;
#X connect 56 0 41 0;
#X connect 57 0 42 0;
#X connect 58 0 43 0;
#X connect 59 0 44 0;
#X connect 60 0 45 0;
#X connect 61 0 46 0;
#X connect 62 0 47 0;
#X connect 63 0 48 0;
#X connect 64 0 49 0;
#X connect 65 0 50 0;
#X connect 66 0 51 0;
#X connect 67 0 10 1;
#X connect 68 0 11 0;
#X connect 69 0 9 1;
#X connect 70 0 3 0;
#X connect 71 0 3 0;
#X connect 72 0 69 1;
#X connect 72 0 67 1;
#X connect 72 0 68 1;
#X connect 73 0 69 2;
#X connect 73 0 67 2;
#X connect 73 0 68 2;
#X connect 74 0 3 0;
#X connect 85 0 69 0;
#X connect 85 0 67 0;
#X connect 85 0 68 0;
#X connect 91 0 14 1;
#X connect 92 0 9 0;
#X connect 93 0 10 0;
#X connect 94 0 11 1;
#X connect 95 0 13 1;
#X coords 0 -1 1 1 280 380 2 100 100;
#X restore 853 467 pd oscilator;
