#N canvas 422 227 760 530 12;
#N canvas 422 227 760 530 sequencer 0;
#X obj 193 125 hradio 15 1 0 16 empty empty empty 0 -8 0 10 -262144
-1 -1 12;
#X msg 63 77 stop;
#X obj 63 115 metro;
#X obj 122 125 bng 15 250 50 0 empty empty empty 17 7 0 10 -262144
-1 -1;
#X obj 64 161 +;
#X obj 102 149 + 1;
#X obj 28 138 bng 15 250 50 0 empty empty empty 17 7 0 10 -262144 -1
-1;
#X obj 63 189 %;
#X obj 116 176 nbx 5 14 -1e+37 1e+37 0 0 empty empty empty 0 -8 0 10
-262144 -1 -1 16 256;
#X floatatom 63 222 5 0 0 0 - - -;
#X obj 216 258 sel 0 1 2 3 4 5 6 7 8 8 9 10 11 12 13 14 15;
#X obj 132 45 expr 60 / $f1 * 1000;
#X obj 8 407 outlet;
#X obj 59 407 outlet;
#X obj 110 407 outlet;
#X obj 162 406 outlet;
#X obj 212 406 outlet;
#X obj 263 405 outlet;
#X obj 315 405 outlet;
#X obj 364 404 outlet;
#X obj 413 403 outlet;
#X obj 519 403 outlet;
#X obj 569 402 outlet;
#X obj 620 402 outlet;
#X obj 671 401 outlet;
#X obj 722 401 outlet;
#X obj 772 400 outlet;
#X obj 149 275 bng 15 250 50 0 empty empty empty 17 7 0 10 -262144
-1 -1;
#X obj 822 399 outlet;
#X floatatom 145 123 5 0 0 0 - - -;
#X connect 0 0 10 0;
#X connect 1 0 2 0;
#X connect 2 0 6 0;
#X connect 2 0 4 0;
#X connect 3 0 2 0;
#X connect 4 0 5 0;
#X connect 4 0 7 0;
#X connect 5 0 4 1;
#X connect 7 0 9 0;
#X connect 7 0 0 0;
#X connect 8 0 7 1;
#X connect 10 0 12 0;
#X connect 10 0 27 0;
#X connect 10 1 13 0;
#X connect 10 2 14 0;
#X connect 10 3 15 0;
#X connect 10 4 16 0;
#X connect 10 5 17 0;
#X connect 10 6 18 0;
#X connect 10 7 19 0;
#X connect 10 8 20 0;
#X connect 10 10 21 0;
#X connect 10 11 22 0;
#X connect 10 12 23 0;
#X connect 10 13 24 0;
#X connect 10 14 25 0;
#X connect 10 15 26 0;
#X connect 10 16 28 0;
#X connect 11 0 2 1;
#X connect 29 0 11 0;
#X coords 0 -1 1 1 350 50 1 100 100;
#X restore 113 73 pd sequencer;
#X obj 108 155 bng 15 250 50 0 empty empty empty 17 7 0 10 -262144
-1 -1;
#X obj 132 154 bng 15 250 50 0 empty empty empty 17 7 0 10 -262144
-1 -1;
#X obj 157 154 bng 15 250 50 0 empty empty empty 17 7 0 10 -262144
-1 -1;
#X obj 183 154 bng 15 250 50 0 empty empty empty 17 7 0 10 -262144
-1 -1;
#X obj 207 154 bng 15 250 50 0 empty empty empty 17 7 0 10 -262144
-1 -1;
#X obj 233 155 bng 15 250 50 0 empty empty empty 17 7 0 10 -262144
-1 -1;
#X obj 258 154 bng 15 250 50 0 empty empty empty 17 7 0 10 -262144
-1 -1;
#X obj 285 155 bng 15 250 50 0 empty empty empty 17 7 0 10 -262144
-1 -1;
#X obj 312 156 bng 15 250 50 0 empty empty empty 17 7 0 10 -262144
-1 -1;
#X obj 338 156 bng 15 250 50 0 empty empty empty 17 7 0 10 -262144
-1 -1;
#X obj 364 156 bng 15 250 50 0 empty empty empty 17 7 0 10 -262144
-1 -1;
#X obj 391 156 bng 15 250 50 0 empty empty empty 17 7 0 10 -262144
-1 -1;
#X obj 424 156 bng 15 250 50 0 empty empty empty 17 7 0 10 -262144
-1 -1;
#X obj 460 158 bng 15 250 50 0 empty empty empty 17 7 0 10 -262144
-1 -1;
#X obj 491 157 bng 15 250 50 0 empty empty empty 17 7 0 10 -262144
-1 -1;
#X obj 542 160 bng 15 250 50 0 empty empty empty 17 7 0 10 -262144
-1 -1;
#X connect 0 0 1 0;
#X connect 0 1 2 0;
#X connect 0 2 3 0;
#X connect 0 3 4 0;
#X connect 0 4 5 0;
#X connect 0 5 6 0;
#X connect 0 6 7 0;
#X connect 0 7 8 0;
#X connect 0 8 9 0;
#X connect 0 9 10 0;
#X connect 0 10 11 0;
#X connect 0 11 12 0;
#X connect 0 12 13 0;
#X connect 0 13 14 0;
#X connect 0 14 15 0;
#X connect 0 15 16 0;
