#N canvas 20 50 852 635 12;
#N canvas 20 50 852 583 sequencer 0;
#X obj 249 124 hradio 15 1 0 16 empty empty empty 0 -8 0 10 -262144
-1 -1 2;
#X msg 63 77 stop;
#X obj 63 115 metro;
#X obj 122 125 bng 15 250 50 0 empty empty empty 17 7 0 10 -262144
-1 -1;
#X obj 64 161 +;
#X obj 102 149 + 1;
#X obj 28 138 bng 15 250 50 0 empty empty empty 17 7 0 10 -262144 -1
-1;
#X obj 63 189 %;
#X obj 188 125 nbx 5 14 -1e+37 1e+37 0 0 empty empty empty 0 -8 0 10
-262144 -1 -1 4 256;
#X floatatom 63 222 5 0 0 0 - - -;
#X obj 132 45 expr 60 / $f1 * 1000;
#X floatatom 145 123 5 0 0 0 - - -;
#X obj 229 245 sel 0 1 2 3 4 5 6 7 8 9 10 11 12 13 14 15;
#X obj 222 293 send step_1;
#X obj 222 321 send step_2;
#X obj 222 348 send step_3;
#X obj 221 374 send step_4;
#X obj 314 294 send step_5;
#X obj 314 322 send step_6;
#X obj 314 349 send step_7;
#X obj 313 375 send step_8;
#X obj 404 294 send step_9;
#X obj 404 322 send step_10;
#X obj 404 349 send step_11;
#X obj 403 375 send step_12;
#X obj 499 294 send step_13;
#X obj 499 322 send step_14;
#X obj 499 349 send step_15;
#X obj 498 375 send step_16;
#X connect 0 0 12 0;
#X connect 1 0 2 0;
#X connect 2 0 6 0;
#X connect 2 0 4 0;
#X connect 3 0 2 0;
#X connect 4 0 5 0;
#X connect 4 0 7 0;
#X connect 5 0 4 1;
#X connect 7 0 9 0;
#X connect 7 0 0 0;
#X connect 8 0 7 1;
#X connect 10 0 2 1;
#X connect 11 0 10 0;
#X connect 12 0 13 0;
#X connect 12 1 14 0;
#X connect 12 2 15 0;
#X connect 12 3 16 0;
#X connect 12 4 17 0;
#X connect 12 5 18 0;
#X connect 12 6 19 0;
#X connect 12 7 20 0;
#X connect 12 8 21 0;
#X connect 12 9 22 0;
#X connect 12 10 23 0;
#X connect 12 11 24 0;
#X connect 12 12 25 0;
#X connect 12 13 26 0;
#X connect 12 14 27 0;
#X connect 12 15 28 0;
#X coords 0 -1 1 1 400 50 1 100 100;
#X restore 333 26 pd sequencer;
#N canvas 20 50 852 661 oscilator 1;
#X obj 101 101 cnv 15 280 400 empty empty empty 20 12 0 14 -237178
-66577 0;
#X obj 668 602 *~;
#X obj 221 438 else/out~;
#X obj 122 180 else/function 235 120 empty empty 0 1 220 220 220 50
50 50 0 0 0 0 0 117.872 0.316667 184.255 0.475 100.426 0.0166667 197.447
0;
#X obj 683 559 else/envgen~ -retrigger 10, f 13;
#X obj 122 62 else/initmess 0 100 1 100 0.5 200 0.5 200 0;
#X obj 163 423 knob 40 40 40 1500 0 0 knob knob empty 0 -8 0 8 2.74442e+06
1 2.76378e+06 0 1;
#X floatatom 167 471 5 0 0 0 - - -;
#X obj -75 677 osc~ 440;
#X obj 181 325 vradio 15 1 0 3 empty empty empty 0 -8 0 10 -262130
-1 -1 0;
#X obj -22 283 sel 0 1 2;
#X obj 7 665 *~;
#X obj -171 635 receive square_receive;
#X obj -36 720 *~;
#X obj -266 696 receive osc_receive;
#X obj -106 790 *~;
#X obj -230 746 receive saw_receive;
#X msg -326 349 1 \; osc_receive 1 \; saw_receive 0 \; square_receive
0 \;;
#X msg -182 348 1 \; osc_receive 0 \; saw_receive 1 \; square_receive
0 \;;
#X msg -34 345 1 \; osc_receive 0 \; saw_receive 0 \; square_receive
1 \;;
#X obj 492 589 hip~;
#X obj 399 574 *~;
#X obj 415 532 receive hip_receive;
#X obj -7 812 *~;
#X obj 33 796 receive lop_receive;
#X obj 81 835 lop~;
#X obj 295 331 mknob 32 100 40 1500 0 0 empty empty Cutoff -2 -6 0
8 -262130 -1 -1 0 1;
#X obj 248 341 vradio 15 1 0 2 empty empty empty 0 -8 0 10 -262130
-1 -1 1;
#X obj -118 92 sel 0 1;
#X msg -108 137 1 \; lop_receive 1 \; hip_receive 0 \;;
#X msg -1 152 1 \; lop_receive 0 \; hip_receive 1 \;;
#X obj 684 112 receive step_1;
#X obj 116 131 tgl 13 0 empty empty empty 17 7 0 10 -262130 -1 -1 1
1;
#X obj 684 134 spigot;
#X obj 131 131 tgl 13 0 empty empty empty 17 7 0 10 -262130 -1 -1 0
1;
#X obj 146 131 tgl 13 0 empty empty empty 17 7 0 10 -262130 -1 -1 0
1;
#X obj 161 131 tgl 13 0 empty empty empty 17 7 0 10 -262130 -1 -1 1
1;
#X obj 179 131 tgl 13 0 empty empty empty 17 7 0 10 -262130 -1 -1 0
1;
#X obj 194 131 tgl 13 0 empty empty empty 17 7 0 10 -262130 -1 -1 0
1;
#X obj 209 131 tgl 13 0 empty empty empty 17 7 0 10 -262130 -1 -1 0
1;
#X obj 224 131 tgl 13 0 empty empty empty 17 7 0 10 -262130 -1 -1 0
1;
#X obj 242 131 tgl 13 0 empty empty empty 17 7 0 10 -262130 -1 -1 0
1;
#X obj 257 131 tgl 13 0 empty empty empty 17 7 0 10 -262130 -1 -1 0
1;
#X obj 272 131 tgl 13 0 empty empty empty 17 7 0 10 -262130 -1 -1 0
1;
#X obj 287 131 tgl 13 0 empty empty empty 17 7 0 10 -262130 -1 -1 0
1;
#X obj 304 131 tgl 13 0 empty empty empty 17 7 0 10 -262130 -1 -1 0
1;
#X obj 319 131 tgl 13 0 empty empty empty 17 7 0 10 -262130 -1 -1 0
1;
#X obj 334 131 tgl 13 0 empty empty empty 17 7 0 10 -262130 -1 -1 0
1;
#X obj 349 131 tgl 13 0 empty empty empty 17 7 0 10 -262130 -1 -1 0
1;
#X obj 684 179 spigot;
#X obj 684 223 spigot;
#X obj 683 266 spigot;
#X obj 793 134 spigot;
#X obj 793 179 spigot;
#X obj 793 223 spigot;
#X obj 792 266 spigot;
#X obj 904 134 spigot;
#X obj 904 179 spigot;
#X obj 904 223 spigot;
#X obj 903 266 spigot;
#X obj 1016 132 spigot;
#X obj 1016 177 spigot;
#X obj 1016 221 spigot;
#X obj 1015 264 spigot;
#X obj 684 157 receive step_2;
#X obj 684 201 receive step_3;
#X obj 683 244 receive step_4;
#X obj 793 112 receive step_5;
#X obj 793 157 receive step_6;
#X obj 793 201 receive step_7;
#X obj 792 244 receive step_8;
#X obj 904 112 receive step_9;
#X obj 904 157 receive step_10;
#X obj 904 201 receive step_11;
#X obj 903 244 receive step_12;
#X obj 1016 110 receive step_13;
#X obj 1016 155 receive step_14;
#X obj 1016 199 receive step_15;
#X obj 1015 242 receive step_16;
#N canvas 0 23 1440 810 fm_osc 0;
#X obj 303 290 *~;
#X obj 213 310 +~;
#X obj 213 354 osc~;
#X obj 293 263 osc~;
#X obj 277 232 *~;
#X obj 358 256 *~;
#X obj 210 178 inlet;
#X obj 307 198 inlet;
#X obj 390 223 inlet;
#X obj 216 397 outlet~;
#X connect 0 0 1 1;
#X connect 1 0 2 0;
#X connect 2 0 9 0;
#X connect 3 0 0 0;
#X connect 4 0 3 0;
#X connect 4 0 5 0;
#X connect 5 0 0 1;
#X connect 6 0 1 0;
#X connect 6 0 4 0;
#X connect 7 0 4 1;
#X connect 8 0 5 1;
#X restore -168 672 pd fm_osc;
#N canvas 0 23 1440 810 fm_saw 0;
#X obj 303 290 *~;
#X obj 213 310 +~;
#X obj 277 232 *~;
#X obj 358 256 *~;
#X obj 210 178 inlet;
#X obj 307 198 inlet;
#X obj 390 223 inlet;
#X obj 216 397 outlet~;
#X obj 293 263 phasor~;
#X obj 213 354 phasor~;
#X connect 0 0 1 1;
#X connect 1 0 9 0;
#X connect 2 0 3 0;
#X connect 2 0 8 0;
#X connect 3 0 0 1;
#X connect 4 0 1 0;
#X connect 4 0 2 0;
#X connect 5 0 2 1;
#X connect 6 0 3 1;
#X connect 8 0 0 0;
#X connect 9 0 7 0;
#X restore -321 741 pd fm_saw;
#N canvas 0 23 1416 810 fm_square 0;
#X obj 349 302 *~;
#X obj 213 310 +~;
#X obj 277 232 *~;
#X obj 358 256 *~;
#X obj 210 178 inlet;
#X obj 307 198 inlet;
#X obj 390 223 inlet;
#X obj 216 397 outlet~;
#X obj 293 263 phasor~;
#X obj 308 368 expr~ $v1 > 0.5;
#X obj 298 331 phasor~;
#X obj 311 283 expr~ $v1 > 0.5;
#X connect 0 0 1 1;
#X connect 1 0 10 0;
#X connect 2 0 3 0;
#X connect 2 0 8 0;
#X connect 3 0 0 1;
#X connect 4 0 1 0;
#X connect 4 0 2 0;
#X connect 5 0 2 1;
#X connect 6 0 3 1;
#X connect 8 0 11 0;
#X connect 9 0 7 0;
#X connect 10 0 9 0;
#X connect 11 0 0 0;
#X restore 44 549 pd fm_square;
#X msg -5 54 width 235;
#X msg 49 23 height 120;
#X obj 160 397 nbx 3 17 -1e+37 1e+37 0 0 empty empty Harmonicity 0
-8 0 10 -262130 -1 -1 -0.01 256;
#X obj 235 397 nbx 3 17 -1e+37 1e+37 0 0 empty empty Mod_Index 0 -8
0 10 -262130 -1 -1 0.08 256;
#X msg -112 19 -fgcolor 255 \, 255 \, 255;
#X text 134 324 Sine ~;
#X text 141 339 Saw ^;
#X text 141 354 Sqr┌┐;
#X text 223 340 lpf;
#X text 223 355 hpf;
#X floatatom 343 373 5 0 0 0 - - -;
#X text 113 110 Step Selection --------------------;
#X text 113 156 Envelope --------------------------;
#X connect 1 0 2 1;
#X connect 1 0 2 0;
#X connect 3 0 4 1;
#X connect 4 0 1 1;
#X connect 5 0 3 0;
#X connect 6 0 7 0;
#X connect 6 0 79 0;
#X connect 6 0 80 0;
#X connect 7 0 81 0;
#X connect 9 0 10 0;
#X connect 10 0 17 0;
#X connect 10 1 18 0;
#X connect 10 2 19 0;
#X connect 11 0 21 0;
#X connect 11 0 23 0;
#X connect 12 0 11 0;
#X connect 13 0 21 0;
#X connect 13 0 23 0;
#X connect 14 0 13 0;
#X connect 15 0 21 0;
#X connect 15 0 23 0;
#X connect 16 0 15 1;
#X connect 20 0 1 0;
#X connect 21 0 20 0;
#X connect 22 0 21 1;
#X connect 23 0 25 0;
#X connect 24 0 23 1;
#X connect 25 0 1 0;
#X connect 26 0 20 1;
#X connect 26 0 25 1;
#X connect 26 0 92 0;
#X connect 27 0 28 0;
#X connect 28 0 29 0;
#X connect 28 1 30 0;
#X connect 31 0 33 0;
#X connect 32 0 33 1;
#X connect 33 0 4 0;
#X connect 34 0 49 1;
#X connect 35 0 50 1;
#X connect 36 0 51 1;
#X connect 37 0 52 1;
#X connect 38 0 53 1;
#X connect 39 0 54 1;
#X connect 40 0 55 1;
#X connect 41 0 56 1;
#X connect 42 0 57 1;
#X connect 43 0 58 1;
#X connect 44 0 59 1;
#X connect 45 0 60 1;
#X connect 46 0 61 1;
#X connect 47 0 62 1;
#X connect 48 0 63 1;
#X connect 49 0 4 0;
#X connect 50 0 4 0;
#X connect 51 0 4 0;
#X connect 52 0 4 0;
#X connect 53 0 4 0;
#X connect 54 0 4 0;
#X connect 56 0 4 0;
#X connect 57 0 4 0;
#X connect 58 0 4 0;
#X connect 59 0 4 0;
#X connect 60 0 4 0;
#X connect 61 0 4 0;
#X connect 62 0 4 0;
#X connect 63 0 4 0;
#X connect 64 0 49 0;
#X connect 65 0 50 0;
#X connect 66 0 51 0;
#X connect 67 0 52 0;
#X connect 68 0 53 0;
#X connect 69 0 54 0;
#X connect 70 0 55 0;
#X connect 71 0 56 0;
#X connect 72 0 57 0;
#X connect 73 0 58 0;
#X connect 74 0 59 0;
#X connect 75 0 60 0;
#X connect 76 0 61 0;
#X connect 77 0 62 0;
#X connect 78 0 63 0;
#X connect 79 0 13 1;
#X connect 80 0 15 0;
#X connect 81 0 11 1;
#X connect 82 0 3 0;
#X connect 83 0 3 0;
#X connect 84 0 81 1;
#X connect 84 0 79 1;
#X connect 84 0 80 1;
#X connect 85 0 81 2;
#X connect 85 0 79 2;
#X connect 85 0 80 2;
#X connect 86 0 3 0;
#X coords 0 -1 1 1 280 400 2 100 100;
#X restore 46 232 pd oscilator;
#X obj 1027 430 *~;
#X obj 964 557 else/out~;
#X obj 937 214 else/function 150 100 empty empty 0 1 220 220 220 50
50 50 0 0 0 0 0 100 1 100 0.5 200 0.5 200 0;
#X obj 1042 387 else/envgen~ -retrigger 10, f 13;
#X obj 1130 190 else/initmess 0 100 1 100 0.5 200 0.5 200 0;
#X msg 1068 170 width 150;
#X obj 933 382 noise~;
#X obj 1103 335 bng 15 250 50 0 empty empty empty 17 7 0 10 -262144
-1 -1;
#X obj 909 351 else/display;
#X msg 899 136 duration 15.2;
#X obj 961 486 vcf~ 3;
#X obj 1059 517 vcf~ 5;
#X floatatom 1078 441 5 0 0 0 - - -;
#X floatatom 1140 462 5 0 0 0 - - -;
#X obj 955 407 lop~ 30;
#X obj 841 372 phasor~ 50;
#X msg 822 187 fgcolor <255 \, 255 \, 255>;
#X connect 2 0 12 0;
#X connect 2 0 13 0;
#X connect 4 0 5 1;
#X connect 4 0 10 0;
#X connect 5 0 2 1;
#X connect 6 0 4 0;
#X connect 7 0 4 0;
#X connect 8 0 16 0;
#X connect 9 0 5 0;
#X connect 12 0 3 0;
#X connect 12 0 3 1;
#X connect 14 0 12 1;
#X connect 15 0 13 1;
#X connect 16 0 2 0;
#X connect 17 0 2 0;
#X connect 18 0 4 0;
